<svg xmlns="http://www.w3.org/2000/svg" xmlns:xlink="http://www.w3.org/1999/xlink" xml:space="preserve" version="1.1" style="shape-rendering:geometricPrecision;text-rendering:geometricPrecision;image-rendering:optimizeQuality;" viewBox="0 0 847 1058.75" x="0px" y="0px" fill-rule="evenodd" clip-rule="evenodd"><defs><style type="text/css">
   
    .fil0 {fill:black}
   
  </style></defs><g><path class="fil0" d="M810 414l-46 0 0 -57c0,-47 -38,-85 -85,-85l-74 0c-47,0 -85,38 -85,85l0 57 -181 0 0 -39 106 0c19,0 35,-16 35,-36l0 -224c0,-19 -16,-35 -35,-35l-327 0c-19,0 -35,16 -35,35l0 224c0,20 16,36 35,36l106 0 0 39 -187 0c-8,0 -14,6 -14,14l0 325c0,18 28,18 28,0l0 -179 745 0 0 179c0,18 27,18 27,0l0 -325c0,-8 -6,-14 -13,-14zm-255 -247c0,48 39,87 87,87 48,0 87,-39 87,-87 0,-48 -39,-87 -87,-87 -48,0 -87,39 -87,87zm146 0c0,33 -26,60 -59,60 -33,0 -60,-27 -60,-60 0,-33 27,-60 60,-60 33,0 59,27 59,60zm-154 190c0,-32 26,-57 58,-57l74 0c32,0 57,25 57,57l0 57 -189 0 0 -57zm-429 -10c-4,0 -8,-3 -8,-8l0 -224c0,-4 4,-8 8,-8l327 0c4,0 8,4 8,8l0 224c0,5 -4,8 -8,8 -109,0 -218,0 -327,0zm133 28l60 0 0 39 -60 0 0 -39zm-200 171l0 -104c248,0 497,0 745,0l0 104 -745 0z"/></g><text x="0" y="862" fill="#000000" font-size="5px" font-weight="bold" font-family="'Helvetica Neue', Helvetica, Arial-Unicode, Arial, Sans-serif">Created by surga abdi robbani</text><text x="0" y="867" fill="#000000" font-size="5px" font-weight="bold" font-family="'Helvetica Neue', Helvetica, Arial-Unicode, Arial, Sans-serif">from the Noun Project</text></svg>