<svg xmlns="http://www.w3.org/2000/svg" xmlns:xlink="http://www.w3.org/1999/xlink" version="1.1" x="0px" y="0px" viewBox="0 0 103 161" style="enable-background:new 0 0 103 128.8;" xml:space="preserve"><g><path d="M23.4,83.1c2.6,0,4.7-2.1,4.7-4.7s-2.1-4.7-4.7-4.7s-4.7,2.1-4.7,4.7S20.8,83.1,23.4,83.1z M23.4,75.3   c1.8,0,3.2,1.4,3.2,3.2c0,1.8-1.4,3.2-3.2,3.2c-1.8,0-3.2-1.4-3.2-3.2C20.3,76.7,21.7,75.3,23.4,75.3z"/><path d="M23.4,72.2c2.6,0,4.7-2.1,4.7-4.7s-2.1-4.7-4.7-4.7s-4.7,2.1-4.7,4.7S20.8,72.2,23.4,72.2z M23.4,64.4   c1.8,0,3.2,1.4,3.2,3.2c0,1.8-1.4,3.2-3.2,3.2c-1.8,0-3.2-1.4-3.2-3.2C20.3,65.8,21.7,64.4,23.4,64.4z"/><path d="M23.4,61.3c1.5,0,2.8-1.2,2.8-2.8c0-1.5-1.3-2.8-2.8-2.8s-2.8,1.2-2.8,2.8C20.6,60.1,21.9,61.3,23.4,61.3z M23.4,57.3   c0.7,0,1.3,0.6,1.3,1.3c0,0.7-0.6,1.3-1.3,1.3c-0.7,0-1.3-0.6-1.3-1.3C22.2,57.8,22.7,57.3,23.4,57.3z"/><path d="M79.6,83.1c2.6,0,4.7-2.1,4.7-4.7s-2.1-4.7-4.7-4.7c-2.6,0-4.7,2.1-4.7,4.7S77,83.1,79.6,83.1z M79.6,75.3   c1.8,0,3.2,1.4,3.2,3.2c0,1.8-1.4,3.2-3.2,3.2c-1.8,0-3.2-1.4-3.2-3.2C76.4,76.7,77.8,75.3,79.6,75.3z"/><path d="M79.6,72.2c2.6,0,4.7-2.1,4.7-4.7s-2.1-4.7-4.7-4.7c-2.6,0-4.7,2.1-4.7,4.7S77,72.2,79.6,72.2z M79.6,64.4   c1.8,0,3.2,1.4,3.2,3.2c0,1.8-1.4,3.2-3.2,3.2c-1.8,0-3.2-1.4-3.2-3.2C76.4,65.8,77.8,64.4,79.6,64.4z"/><path d="M79.6,61.3c1.5,0,2.8-1.2,2.8-2.8c0-1.5-1.2-2.8-2.8-2.8c-1.5,0-2.8,1.2-2.8,2.8C76.8,60.1,78.1,61.3,79.6,61.3z    M79.6,57.3c0.7,0,1.3,0.6,1.3,1.3c0,0.7-0.6,1.3-1.3,1.3c-0.7,0-1.3-0.6-1.3-1.3C78.3,57.8,78.9,57.3,79.6,57.3z"/><path d="M89.5,88.3V52.2H69.7v36.1h-8.6l-8.6-6.7V49.9c0.8-0.4,1.4-1.2,1.4-2.1v-5.6c1.1-0.8,1.7-2,1.7-3.3c0-2.2-1.8-4.1-4.1-4.1   c-2.2,0-4.1,1.8-4.1,4.1c0,1.3,0.7,2.6,1.7,3.3v5.6c0,1,0.6,1.8,1.4,2.1v31.8l-8.6,6.7h-8.6V52.2H13.6v36.1H6.9   c0.4,0.6-0.4,1.3,0,1.9h6.7h19.8h36.4h19.8h6.7c0.4-0.6-0.4-1.3,0-1.9H89.5z M31.4,88.3h-16v-2h16V88.3z M31.4,84.9h-16V54.1h16   V84.9z M50.6,88.3H45l5.5-4.3V88.3z M49.4,40.3c-0.3-0.4-0.4-0.9-0.4-1.4c0-1.4,1.1-2.5,2.6-2.5c1.4,0,2.6,1.1,2.6,2.5   c0,0.5-0.2,1-0.4,1.4c-0.4-0.8-1.2-1.3-2.1-1.3C50.6,38.9,49.8,39.5,49.4,40.3z M51.5,48.6c-0.5,0-0.8-0.4-0.8-0.8s0.4-0.8,0.8-0.8   s0.8,0.4,0.8,0.8S52,48.6,51.5,48.6z M52.3,45.6c-0.3-0.1-0.5-0.2-0.8-0.2c-0.3,0-0.6,0.1-0.8,0.2v-4.3c0-0.5,0.4-0.8,0.8-0.8   s0.8,0.4,0.8,0.8V45.6z M52.5,88.3V84l5.5,4.3H52.5z M87.6,88.3h-16v-2h16V88.3z M87.6,84.9h-16V54.1h16V84.9z"/></g><g><path d="M49,38.7c0,0.1,0,0.1,0,0.2c0,0.5,0.2,1,0.4,1.4L49,38.7z"/></g><text x="0" y="143.8" fill="#000000" font-size="5px" font-weight="bold" font-family="'Helvetica Neue', Helvetica, Arial-Unicode, Arial, Sans-serif">Created by Seb Chmiel</text><text x="0" y="148.8" fill="#000000" font-size="5px" font-weight="bold" font-family="'Helvetica Neue', Helvetica, Arial-Unicode, Arial, Sans-serif">from the Noun Project</text></svg>