<svg xmlns="http://www.w3.org/2000/svg" xmlns:xlink="http://www.w3.org/1999/xlink" version="1.1" x="0px" y="0px" viewBox="0 0 512 640" enable-background="new 0 0 512 512" xml:space="preserve"><g><path d="M431.7,344.2l-53.8-55.5c-9.3-9.6-22.3-15.1-35.6-15.1H221.5v-93.9c0-27.3-22.2-49.5-49.5-49.5   c-26.1,0-47.5,20.3-49.4,45.9C51.1,197.6,2,262.9,2,338.6c0,93.7,76.2,170,170,170c76.2,0,141.9-50.9,162.8-122l59.5,61.5   c15.4,18.6,48.3,21.6,69.7,1.5l30.8-29.2c20.6-19.3,19.5-53.7,1.9-70C480.3,331.6,450.4,330.5,431.7,344.2z M172,372.7h62.1   c-12.2,22.3-35.6,36.8-62.1,36.8c-39.1,0-70.9-31.8-70.9-70.9c0-19.3,8-37.3,21.4-50.3v34.9C122.4,350.5,144.7,372.7,172,372.7z    M172,480.3c-78.2,0-141.7-63.6-141.7-141.7c0-60.1,37.2-112.3,92.2-132.6v46.9c-30.4,17.6-49.6,50.3-49.6,85.7   c0,54.7,44.5,99.1,99.1,99.1c42.1,0,78.8-26.3,92.9-65h44.4C293.9,435,237.6,480.3,172,480.3z M475.3,399.8L444.5,429   c-8.2,7.8-22.1,7.5-30-0.6l-77.1-79.6c-2.7-2.7-6.3-4.3-10.1-4.3H172c-11.7,0-21.3-9.6-21.3-21.3V179.8c0-11.7,9.6-21.3,21.3-21.3   c11.7,0,21.3,9.6,21.3,21.3v108c0,7.8,6.3,14.1,14.1,14.1h134.9c5.7,0,11.3,2.4,15.3,6.5l63.2,65.2c5.4,5.6,14.2,5.7,19.9,0.4   l5.3-5.1c8.3-7.8,22.3-7.5,30.1,0.8C484.4,380.5,483.7,390.5,475.3,399.8z"/><path d="M172,114.3c30.6,0,55.4-24.9,55.4-55.4S202.5,3.4,172,3.4s-55.4,24.9-55.4,55.4S141.4,114.3,172,114.3z M172,31.7   c15,0,27.2,12.2,27.2,27.2S187,86.1,172,86.1s-27.2-12.2-27.2-27.2S157,31.7,172,31.7z"/></g><text x="0" y="527" fill="#000000" font-size="5px" font-weight="bold" font-family="'Helvetica Neue', Helvetica, Arial-Unicode, Arial, Sans-serif">Created by ProSymbols</text><text x="0" y="532" fill="#000000" font-size="5px" font-weight="bold" font-family="'Helvetica Neue', Helvetica, Arial-Unicode, Arial, Sans-serif">from the Noun Project</text></svg>