<svg xmlns="http://www.w3.org/2000/svg" viewBox="0 0 32 40" fill="none" x="0px" y="0px"><path d="M17 5.03845C17 4.48617 16.5523 4.03845 16 4.03845C15.4477 4.03845 15 4.48617 15 5.03845V15.1203L10.5526 21.7914C10.2462 22.251 10.3704 22.8718 10.8299 23.1782C11.2894 23.4845 11.9103 23.3604 12.2167 22.9008L16.8321 15.9778C16.9416 15.8135 17 15.6205 17 15.4231V5.03845Z" fill="black"/><path fill-rule="evenodd" clip-rule="evenodd" d="M16 0C7.16344 0 0 7.16344 0 16C0 24.8366 7.16344 32 16 32C24.8366 32 32 24.8366 32 16C32 7.16344 24.8366 0 16 0ZM2 16C2 8.26801 8.26801 2 16 2C23.732 2 30 8.26801 30 16C30 23.732 23.732 30 16 30C8.26801 30 2 23.732 2 16Z" fill="black"/><text x="0" y="47" fill="#000000" font-size="5px" font-weight="bold" font-family="'Helvetica Neue', Helvetica, Arial-Unicode, Arial, Sans-serif">Created by HideMaru</text><text x="0" y="52" fill="#000000" font-size="5px" font-weight="bold" font-family="'Helvetica Neue', Helvetica, Arial-Unicode, Arial, Sans-serif">from the Noun Project</text></svg>