<svg xmlns:dc="http://purl.org/dc/elements/1.1/" xmlns:cc="http://creativecommons.org/ns#" xmlns:rdf="http://www.w3.org/1999/02/22-rdf-syntax-ns#" xmlns:svg="http://www.w3.org/2000/svg" xmlns="http://www.w3.org/2000/svg" data-name="Layer 1" viewBox="0 0 64 80" version="1.1" x="0px" y="0px"><defs><style>.cls-1{fill:#000;}</style></defs><title>15 - Insurance</title><path d="M 26.955078 7.0527344 A 6.6073614 6.6073614 0 0 0 22 18.119141 L 31.259766 28.199219 A 1 1 0 0 0 32.730469 28.199219 L 42 18.119141 A 6.6 6.6 0 0 0 41.589844 8.8007812 L 41.570312 8.8007812 A 6.6 6.6 0 0 0 32.25 9.2109375 L 32 9.4804688 L 31.75 9.1992188 A 6.6073614 6.6073614 0 0 0 26.955078 7.0527344 z M 26.988281 9.1367188 A 4.6 4.6 0 0 1 30.279297 10.509766 L 31.279297 11.589844 A 1 1 0 0 0 32.75 11.589844 L 33.75 10.509766 A 4.6 4.6 0 0 1 40.529297 16.720703 L 40.5 16.800781 L 32 26 L 23.5 16.720703 A 4.6 4.6 0 0 1 26.988281 9.1367188 z M 38.515625 10.322266 A 1 1 0 0 0 37.759766 10.660156 A 1 1 0 0 0 37.820312 12.070312 A 2.32 2.32 0 0 1 38 15.349609 A 1 1 0 1 0 39.470703 16.699219 A 4.32 4.32 0 0 0 39.199219 10.599609 A 1 1 0 0 0 38.515625 10.322266 z M 9.9492188 17.998047 A 4 4 0 0 0 6 22 L 6 38.929688 A 5.48 5.48 0 0 0 7.4902344 42.699219 L 11.529297 47 A 1.73 1.73 0 0 1 12 48.179688 L 12 49.509766 A 2.4 2.4 0 0 0 11.720703 49.740234 A 2.46 2.46 0 0 0 11 51.470703 L 11 56.400391 A 1 1 0 0 0 13 56.400391 L 13 51.470703 A 0.45 0.45 0 0 1 13.449219 51.019531 L 27.550781 51.019531 A 0.45 0.45 0 0 1 27.869141 51.150391 A 0.44 0.44 0 0 1 28 51.460938 L 28 56.400391 A 1 1 0 0 0 30 56.400391 L 30 51.470703 A 2.46 2.46 0 0 0 29.279297 49.740234 A 2.41 2.41 0 0 0 29 49.509766 L 29 44.509766 A 10 10 0 0 0 25.919922 37.330078 L 18.429688 30.199219 A 3.69 3.69 0 0 0 13.25 30.269531 A 3.77 3.77 0 0 0 13.25 35.599609 L 17.779297 40.130859 L 19.189453 38.720703 L 14.660156 34.189453 A 1.77 1.77 0 0 1 14.660156 31.689453 A 1.7 1.7 0 0 1 17.050781 31.689453 L 24.539062 38.820312 A 8 8 0 0 1 27 44.529297 L 27 49 L 14 49 L 14 48.150391 A 3.72 3.72 0 0 0 13 45.589844 L 9 41.300781 A 3.49 3.49 0 0 1 8 38.929688 L 8 22 A 2 2 0 0 1 12 22 L 12 27 A 1 1 0 0 0 14 27 L 14 22 A 4 4 0 0 0 12.830078 19.169922 A 4 4 0 0 0 9.9492188 17.998047 z M 54.060547 18 A 4 4 0 0 0 50 22 L 50 27 A 1 1 0 0 0 52 27 L 52 22 A 2 2 0 0 1 52.580078 20.589844 A 2 2 0 0 1 56 22 L 56 38.929688 A 3.49 3.49 0 0 1 55.050781 41.330078 L 51.050781 45.619141 A 3.72 3.72 0 0 0 50.050781 48.179688 L 50.050781 49 L 37 49 L 37 44.529297 A 7.94 7.94 0 0 1 39.460938 38.800781 L 46.949219 31.669922 A 1.7 1.7 0 0 1 49.339844 31.669922 A 1.77 1.77 0 0 1 49.339844 34.169922 L 44.810547 38.730469 L 46.220703 40.140625 L 50.75 35.609375 A 3.77 3.77 0 0 0 50.75 30.279297 A 3.69 3.69 0 0 0 45.570312 30.220703 L 38.080078 37.349609 A 10 10 0 0 0 35 44.529297 L 35 49.529297 A 2.4 2.4 0 0 0 34.720703 49.759766 A 2.46 2.46 0 0 0 34 51.470703 L 34 56.400391 A 1 1 0 0 0 36 56.400391 L 36 51.470703 A 0.45 0.45 0 0 1 36.449219 51.019531 L 50.550781 51.019531 A 0.45 0.45 0 0 1 50.869141 51.150391 A 0.44 0.44 0 0 1 51 51.460938 L 51 56.400391 A 1 1 0 0 0 53 56.400391 L 53 51.470703 A 2.46 2.46 0 0 0 52.279297 49.740234 A 2.41 2.41 0 0 0 52 49.509766 L 52 48.179688 A 1.73 1.73 0 0 1 52.470703 47 L 56.470703 42.710938 A 5.48 5.48 0 0 0 58 38.929688 L 58 22 A 4 4 0 0 0 54.060547 18 z "/><text x="0" y="79" fill="#000000" font-size="5px" font-weight="bold" font-family="'Helvetica Neue', Helvetica, Arial-Unicode, Arial, Sans-serif">Created by StringLabs</text><text x="0" y="84" fill="#000000" font-size="5px" font-weight="bold" font-family="'Helvetica Neue', Helvetica, Arial-Unicode, Arial, Sans-serif">from the Noun Project</text></svg>