<svg xmlns="http://www.w3.org/2000/svg" viewBox="0 0 64 80" x="0px" y="0px"><g><path d="M59,26c-1.178,0-2.133,1.105-2.635,3H52.772A20.787,20.787,0,0,0,48.8,19.439l2.547-2.547c1.693.986,3.15,1.092,3.983.259.4-.4.947-1.332.176-3.135a10.831,10.831,0,0,0-2.3-3.229,10.8,10.8,0,0,0-3.229-2.3c-1.8-.774-2.738-.222-3.134.175-.833.833-.728,2.29.257,3.984L44.561,15.2A20.787,20.787,0,0,0,35,11.228V7.635c1.9-.5,3-1.457,3-2.635,0-2.061-3.11-3-6-3s-6,.939-6,3c0,1.178,1.105,2.134,3,2.635v3.593A20.787,20.787,0,0,0,19.439,15.2L16.893,12.65c.985-1.694,1.09-3.151.257-3.984-.4-.4-1.33-.948-3.134-.175a10.8,10.8,0,0,0-3.229,2.3,10.831,10.831,0,0,0-2.3,3.229c-.771,1.8-.22,2.738.176,3.135.833.835,2.291.727,3.983-.259L15.2,19.439A20.787,20.787,0,0,0,11.228,29H7.635c-.5-1.895-1.457-3-2.635-3-2.062,0-3,3.11-3,6s.938,6,3,6c1.178,0,2.133-1.1,2.635-3h3.593A20.787,20.787,0,0,0,15.2,44.561l-2.547,2.547c-1.694-.986-3.15-1.092-3.983-.259-.4.4-.947,1.332-.176,3.135a10.831,10.831,0,0,0,2.3,3.229,10.8,10.8,0,0,0,3.229,2.3,4.215,4.215,0,0,0,1.651.389,2.024,2.024,0,0,0,1.483-.564c.833-.833.728-2.29-.257-3.984L19.439,48.8A20.787,20.787,0,0,0,29,52.772v3.593c-1.895.5-3,1.457-3,2.635,0,2.061,3.11,3,6,3s6-.939,6-3c0-1.178-1.1-2.134-3-2.635V52.772A20.787,20.787,0,0,0,44.561,48.8l2.546,2.546c-.985,1.694-1.09,3.151-.257,3.984a2.022,2.022,0,0,0,1.483.564,4.215,4.215,0,0,0,1.651-.389,11.905,11.905,0,0,0,5.526-5.525c.771-1.8.22-2.738-.176-3.135-.832-.833-2.291-.726-3.983.259L48.8,44.561A20.787,20.787,0,0,0,52.772,35h3.593c.5,1.9,1.457,3,2.635,3,2.062,0,3-3.11,3-6S61.062,26,59,26Zm0,9.973a4.063,4.063,0,0,1-.847-2.147A1,1,0,0,0,57.17,33H50a3,3,0,0,0-3,3,1,1,0,0,0,2,0,1,1,0,0,1,1-1h.755a18.8,18.8,0,0,1-3.377,8.135l-.528-.529a1,1,0,0,1,0-1.413,1,1,0,0,0-1.414-1.415,3,3,0,0,0,0,4.243l5.069,5.07a1,1,0,0,0,1.28.112,4.077,4.077,0,0,1,2.116-.92c.046.42-.449,1.863-2.1,3.516s-3.093,2.131-3.516,2.1a4.049,4.049,0,0,1,.92-2.116,1,1,0,0,0-.112-1.281l-5.07-5.07a3.007,3.007,0,0,0-4.243,0,1,1,0,0,0,1.414,1.415,1,1,0,0,1,1.414,0l.529.529A18.8,18.8,0,0,1,35,50.755V50a1,1,0,0,1,1-1,1,1,0,0,0,0-2,3,3,0,0,0-3,3v7.17a1,1,0,0,0,.826.985A4.057,4.057,0,0,1,35.973,59c-.266.329-1.636,1-3.973,1s-3.707-.67-3.973-1a4.057,4.057,0,0,1,2.147-.846A1,1,0,0,0,31,57.17V50a3,3,0,0,0-3-3,1,1,0,0,0,0,2,1,1,0,0,1,1,1v.755a18.8,18.8,0,0,1-8.135-3.377l.529-.528a1,1,0,0,1,1.414,0,1,1,0,0,0,1.414-1.415,3.006,3.006,0,0,0-4.243,0l-5.07,5.07a1,1,0,0,0-.112,1.281,4.049,4.049,0,0,1,.92,2.116c-.438.028-1.863-.451-3.516-2.1s-2.148-3.095-2.1-3.515a4.066,4.066,0,0,1,2.116.92,1,1,0,0,0,1.28-.112l5.069-5.07a3,3,0,0,0,0-4.243,1,1,0,0,0-1.414,1.415,1,1,0,0,1,0,1.413l-.528.529A18.8,18.8,0,0,1,13.245,35H14a1,1,0,0,1,1,1,1,1,0,0,0,2,0,3,3,0,0,0-3-3H6.83a1,1,0,0,0-.984.826A4.067,4.067,0,0,1,5,35.973C4.67,35.707,4,34.336,4,32s.67-3.708,1-3.973a4.063,4.063,0,0,1,.847,2.147A1,1,0,0,0,6.83,31H14a3,3,0,0,0,3-3,1,1,0,0,0-2,0,1,1,0,0,1-1,1h-.755a18.8,18.8,0,0,1,3.377-8.135l.528.529a1,1,0,0,1,0,1.413,1,1,0,1,0,1.414,1.415,3,3,0,0,0,0-4.243L13.5,14.909a1,1,0,0,0-1.28-.112,3.982,3.982,0,0,1-2.116.92c-.046-.42.449-1.863,2.1-3.516s3.077-2.144,3.516-2.1a4.049,4.049,0,0,1-.92,2.116,1,1,0,0,0,.112,1.281l5.07,5.07a3.007,3.007,0,0,0,4.243,0,1,1,0,0,0-1.414-1.415,1,1,0,0,1-1.414,0l-.529-.529A18.8,18.8,0,0,1,29,13.245V14a1,1,0,0,1-1,1,1,1,0,0,0,0,2,3,3,0,0,0,3-3V6.83a1,1,0,0,0-.826-.985A4.057,4.057,0,0,1,28.027,5C28.293,4.67,29.663,4,32,4s3.707.67,3.973,1a4.057,4.057,0,0,1-2.147.846A1,1,0,0,0,33,6.83V14a3,3,0,0,0,3,3,1,1,0,0,0,0-2,1,1,0,0,1-1-1v-.755a18.8,18.8,0,0,1,8.135,3.377l-.529.528a1,1,0,0,1-1.414,0,1,1,0,0,0-1.414,1.415,3.006,3.006,0,0,0,4.243,0l5.07-5.07a1,1,0,0,0,.112-1.281,4.049,4.049,0,0,1-.92-2.116c.424-.041,1.863.451,3.516,2.1s2.148,3.1,2.1,3.515a3.987,3.987,0,0,1-2.116-.92,1,1,0,0,0-1.28.112l-5.069,5.07a3,3,0,0,0,0,4.243,1,1,0,0,0,1.414-1.415,1,1,0,0,1,0-1.413l.528-.529A18.8,18.8,0,0,1,50.755,29H50a1,1,0,0,1-1-1,1,1,0,0,0-2,0,3,3,0,0,0,3,3h7.17a1,1,0,0,0,.984-.826A4.067,4.067,0,0,1,59,28.027c.329.266,1,1.637,1,3.973S59.33,35.708,59,35.973Z"/><path d="M38,21a5,5,0,1,0,5,5A5.006,5.006,0,0,0,38,21Zm0,8a3,3,0,1,1,3-3A3,3,0,0,1,38,29Z"/><path d="M25,31a4,4,0,1,0,4,4A4,4,0,0,0,25,31Zm0,6a2,2,0,1,1,2-2A2,2,0,0,1,25,37Z"/><path d="M25,28a3,3,0,1,0-3-3A3,3,0,0,0,25,28Zm0-4a1,1,0,1,1-1,1A1,1,0,0,1,25,24Z"/><path d="M32,40a3,3,0,1,0,3,3A3,3,0,0,0,32,40Zm0,4a1,1,0,1,1,1-1A1,1,0,0,1,32,44Z"/><path d="M39,34a3,3,0,1,0,3,3A3,3,0,0,0,39,34Zm0,4a1,1,0,1,1,1-1A1,1,0,0,1,39,38Z"/></g><text x="0" y="79" fill="#000000" font-size="5px" font-weight="bold" font-family="'Helvetica Neue', Helvetica, Arial-Unicode, Arial, Sans-serif">Created by Sarote Impheng</text><text x="0" y="84" fill="#000000" font-size="5px" font-weight="bold" font-family="'Helvetica Neue', Helvetica, Arial-Unicode, Arial, Sans-serif">from the Noun Project</text></svg>