<svg xmlns="http://www.w3.org/2000/svg" viewBox="0 0 64 80" x="0px" y="0px"><title>vip-luxury-royal-exclusive-premium</title><g><g data-name="26-vip"><path d="M21,39V53a1,1,0,0,0,1,1H42a1,1,0,0,0,1-1V39H41V52H23V39Z"/><path d="M43,27V18a1,1,0,0,0-1-1H38v2h3v8Z"/><path d="M23,19h3V17H22a1,1,0,0,0-1,1v9h2Z"/><path d="M46.336,13.059l-8-2.858-.672,1.883L45,14.705V56H19V14.705l8.336-2.977-.672-1.883-9,3.214A1,1,0,0,0,17,14V57a1,1,0,0,0,1,1H46a1,1,0,0,0,1-1V14A1,1,0,0,0,46.336,13.059Z"/><rect x="31" y="14" width="2" height="2"/><path d="M14,31a5.006,5.006,0,0,1-5-5,1,1,0,0,0-2,0,5.006,5.006,0,0,1-5,5,1,1,0,0,0,0,2,5.006,5.006,0,0,1,5,5,1,1,0,0,0,2,0,5.006,5.006,0,0,1,5-5,1,1,0,0,0,0-2ZM8,34.4A7.066,7.066,0,0,0,5.6,32,7.066,7.066,0,0,0,8,29.6,7.066,7.066,0,0,0,10.4,32,7.066,7.066,0,0,0,8,34.4Z"/><path d="M63,31a5.006,5.006,0,0,1-5-5,1,1,0,0,0-2,0,5.006,5.006,0,0,1-5,5,1,1,0,0,0,0,2,5.006,5.006,0,0,1,5,5,1,1,0,0,0,2,0,5.006,5.006,0,0,1,5-5,1,1,0,0,0,0-2Zm-6,3.4A7.066,7.066,0,0,0,54.6,32,7.066,7.066,0,0,0,57,29.6,7.066,7.066,0,0,0,59.4,32,7.066,7.066,0,0,0,57,34.4Z"/><path d="M26,8h2V18a1,1,0,0,0,1,1h6a1,1,0,0,0,1-1V8h2a1,1,0,0,0,.781-.375l4-5-1.562-1.25L37.52,6H36V3a1,1,0,0,0-1-1H29a1,1,0,0,0-1,1V6H26.566L23.857,1.485l-1.714,1.03,3,5A1,1,0,0,0,26,8Zm4,2h4v1H30Zm0,7V13h4v4ZM34,4V8H30V4Z"/><path d="M32.785,22.455a1.012,1.012,0,0,0-.9-.544,1,1,0,0,0-.888.571l-2.623,5.525-6.037.971a1,1,0,0,0-.528,1.713l4.443,4.2L25.3,40.935a1,1,0,0,0,.988,1.154.992.992,0,0,0,.479-.122l5.369-2.928L37.6,41.8a1,1,0,0,0,1.435-1.075l-1.125-6.011,4.313-4.335a1,1,0,0,0-.58-1.7L35.574,27.9Zm3.331,11.223a1,1,0,0,0-.274.888l.849,4.537-4.116-2.085a1,1,0,0,0-.931.013l-4.051,2.21.711-4.559A1,1,0,0,0,28,33.8L24.65,30.63l4.556-.733a1,1,0,0,0,.744-.558l1.979-4.168,2.105,4.106a1,1,0,0,0,.761.536l4.576.593Z"/></g></g><text x="0" y="79" fill="#000000" font-size="5px" font-weight="bold" font-family="'Helvetica Neue', Helvetica, Arial-Unicode, Arial, Sans-serif">Created by Chaowalit  Koetchuea</text><text x="0" y="84" fill="#000000" font-size="5px" font-weight="bold" font-family="'Helvetica Neue', Helvetica, Arial-Unicode, Arial, Sans-serif">from the Noun Project</text></svg>