<svg xmlns="http://www.w3.org/2000/svg" xmlns:xlink="http://www.w3.org/1999/xlink" version="1.1" x="0px" y="0px" viewBox="0 0 100 125" style="enable-background:new 0 0 100 100;" xml:space="preserve"><g><path d="M80.3,13.2H68.1c-0.8-2.7-3.3-4.6-6.2-4.6h-5.2c-0.9-2.9-3.6-5-6.7-5s-5.8,2.1-6.7,5h-5.2c-2.9,0-5.4,1.9-6.2,4.6H19.7   c-0.8,0-1.5,0.7-1.5,1.5V95c0,0.8,0.7,1.5,1.5,1.5h60.6c0.8,0,1.5-0.7,1.5-1.5V14.7C81.8,13.9,81.1,13.2,80.3,13.2z M34.7,15   c0-0.1,0-0.2,0-0.2c0,0,0,0,0,0c0,0,0,0,0,0c0.1-1.8,1.6-3.2,3.4-3.2h6.4c0.8,0,1.4-0.6,1.5-1.4c0.2-2,1.9-3.6,4-3.6s3.8,1.6,4,3.6   c0.1,0.8,0.7,1.4,1.5,1.4h6.4c1.8,0,3.3,1.4,3.4,3.2c0,0,0,0,0,0c0,0.1,0,0.2,0,0.2v1.2H34.7L34.7,15z M78.8,93.5H21.2V16.2h10.4   v1.5c0,0.8,0.7,1.5,1.5,1.5h33.7c0.8,0,1.5-0.7,1.5-1.5v-1.5h10.4V93.5z"/><path d="M65.8,79.8H44.3c-0.8,0-1.5,0.7-1.5,1.5s0.7,1.5,1.5,1.5h21.5c0.8,0,1.5-0.7,1.5-1.5S66.6,79.8,65.8,79.8z"/><path d="M71.5,70.8H44.3c-0.8,0-1.5,0.7-1.5,1.5s0.7,1.5,1.5,1.5h27.2c0.8,0,1.5-0.7,1.5-1.5S72.3,70.8,71.5,70.8z"/><path d="M44.3,61.8h21.5c0.8,0,1.5-0.7,1.5-1.5s-0.7-1.5-1.5-1.5H44.3c-0.8,0-1.5,0.7-1.5,1.5S43.5,61.8,44.3,61.8z"/><path d="M71.5,49.8H44.3c-0.8,0-1.5,0.7-1.5,1.5s0.7,1.5,1.5,1.5h27.2c0.8,0,1.5-0.7,1.5-1.5S72.3,49.8,71.5,49.8z"/><path d="M44.3,40.8h21.5c0.8,0,1.5-0.7,1.5-1.5s-0.7-1.5-1.5-1.5H44.3c-0.8,0-1.5,0.7-1.5,1.5S43.5,40.8,44.3,40.8z"/><path d="M42.8,30.3c0,0.8,0.7,1.5,1.5,1.5h27.2c0.8,0,1.5-0.7,1.5-1.5s-0.7-1.5-1.5-1.5H44.3C43.5,28.8,42.8,29.5,42.8,30.3z"/><path d="M38.4,29.4c-0.7-0.5-1.6-0.3-2.1,0.3l-4.8,6.7l-1.8-2.5c-0.5-0.7-1.4-0.8-2.1-0.3c-0.7,0.5-0.8,1.4-0.3,2.1l3,4.2   c0.3,0.4,0.7,0.6,1.2,0.6s0.9-0.2,1.2-0.6l6-8.4C39.2,30.8,39.1,29.9,38.4,29.4z"/><path d="M38.4,50.4c-0.7-0.5-1.6-0.3-2.1,0.3l-4.8,6.7l-1.8-2.5c-0.5-0.7-1.4-0.8-2.1-0.3c-0.7,0.5-0.8,1.4-0.3,2.1l3,4.2   c0.3,0.4,0.7,0.6,1.2,0.6s0.9-0.2,1.2-0.6l6-8.4C39.2,51.8,39.1,50.9,38.4,50.4z"/><path d="M38.4,71.4c-0.7-0.5-1.6-0.3-2.1,0.3l-4.8,6.7l-1.8-2.5c-0.5-0.7-1.4-0.8-2.1-0.3c-0.7,0.5-0.8,1.4-0.3,2.1l3,4.2   c0.3,0.4,0.7,0.6,1.2,0.6s0.9-0.2,1.2-0.6l6-8.4C39.2,72.8,39.1,71.9,38.4,71.4z"/></g><text x="0" y="115" fill="#000000" font-size="5px" font-weight="bold" font-family="'Helvetica Neue', Helvetica, Arial-Unicode, Arial, Sans-serif">Created by Justin Blake</text><text x="0" y="120" fill="#000000" font-size="5px" font-weight="bold" font-family="'Helvetica Neue', Helvetica, Arial-Unicode, Arial, Sans-serif">from the Noun Project</text></svg>