<svg xmlns:dc="http://purl.org/dc/elements/1.1/" xmlns:cc="http://creativecommons.org/ns#" xmlns:rdf="http://www.w3.org/1999/02/22-rdf-syntax-ns#" xmlns:svg="http://www.w3.org/2000/svg" xmlns="http://www.w3.org/2000/svg" xmlns:sodipodi="http://sodipodi.sourceforge.net/DTD/sodipodi-0.dtd" xmlns:inkscape="http://www.inkscape.org/namespaces/inkscape" version="1.1" x="0px" y="0px" viewBox="0 0 100 125"><g transform="translate(0,-952.36218)"><path style="text-indent:0;text-transform:none;direction:ltr;block-progression:tb;baseline-shift:baseline;color:#000000;enable-background:accumulate;" d="m 59.907795,993.67504 a 2.0002005,2.0002005 0 0 0 -1.672964,0.82368 c -1.866649,2.49447 -4.829609,4.10904 -8.210035,4.10904 -3.368727,0 -6.343386,-1.61726 -8.197136,-4.10561 a 2.0002005,2.0002005 0 1 0 -3.20784,2.38981 c 2.58679,3.47244 6.752853,5.71584 11.404976,5.71584 4.660622,0 8.818785,-2.2461 11.412575,-5.7124 a 2.0002005,2.0002005 0 0 0 -1.529576,-3.22036 z" fill="#000000" fill-opacity="1" fill-rule="evenodd" stroke="none" marker="none" visibility="visible" display="inline" overflow="visible"/><path style="text-indent:0;text-transform:none;direction:ltr;block-progression:tb;baseline-shift:baseline;color:#000000;enable-background:accumulate;" d="m 60.34616,1026.801 a 2.0002005,2.0002005 0 1 0 0,4 l 7.960955,0 a 2.0002005,2.0002005 0 1 0 0,-4 l -7.960955,0 z" fill="#000000" fill-opacity="1" fill-rule="evenodd" stroke="none" marker="none" visibility="visible" display="inline" overflow="visible"/><path style="text-indent:0;text-transform:none;direction:ltr;block-progression:tb;baseline-shift:baseline;color:#000000;enable-background:accumulate;" d="m 30.182703,965.90354 c -9.475632,0 -17.212006,7.68231 -17.212006,17.11204 0,6.27393 3.419623,11.76688 8.494912,14.74569 -9.040768,3.52273 -15.4656465,12.35523 -15.4656465,22.65883 0,0.2618 0.05209,0.5234 0.152287,0.7652 0.100192,0.2419 0.24848,0.4637 0.433565,0.6488 0.185085,0.1851 0.406867,0.3333 0.648748,0.4335 0.24178,0.1002 0.503459,0.1523 0.765238,0.1523 l 14.9178915,0 c -2.268717,4.2987 -3.556312,9.1968 -3.556312,14.3919 0,0.2618 0.05209,0.5235 0.152287,0.7654 0.100192,0.2419 0.24838,0.4638 0.433565,0.6489 0.185085,0.1851 0.406967,0.3334 0.648848,0.4336 0.24188,0.1002 0.503659,0.1522 0.765438,0.1522 19.145749,0.02 38.193606,0 57.32696,0 0.261779,0 0.52345,-0.052 0.76533,-0.1523 0.241879,-0.1002 0.463669,-0.2485 0.64875,-0.4336 0.18509,-0.1851 0.33337,-0.407 0.43357,-0.6489 0.10009,-0.2418 0.15218,-0.5035 0.15218,-0.7653 0,-5.1951 -1.28729,-10.0932 -3.556007,-14.3919 l 14.867597,0 c 0.26178,0 0.52346,-0.052 0.76534,-0.1522 0.24188,-0.1002 0.46376,-0.2484 0.64884,-0.4335 0.18509,-0.1851 0.33338,-0.4069 0.43357,-0.6488 0.10029,-0.2418 0.15239,-0.5035 0.15239,-0.7653 0,-10.3036 -6.42528,-19.1361 -15.46595,-22.65883 5.07529,-2.9788 8.49491,-8.47173 8.49491,-14.74569 0,-9.42972 -7.73607,-17.11204 -17.211705,-17.11204 -3.783893,0 -7.304708,1.22285 -10.152277,3.29504 -2.905965,-1.44196 -6.18,-2.25481 -9.640219,-2.25481 -3.470719,0 -6.754553,0.81904 -9.667317,2.27137 -2.848969,-2.08108 -6.373384,-3.3116 -10.174776,-3.3116 z m 0,3.99999 c 2.356809,0 4.550231,0.60425 6.452577,1.6658 -5.026792,3.94557 -8.26273,10.05573 -8.26273,16.90675 0,2.6914 0.501459,5.26828 1.413885,7.64501 -7.142621,-0.20637 -12.815762,-5.97333 -12.815762,-13.10551 0,-7.25227 5.885624,-13.11205 13.21203,-13.11205 z m 39.634589,0 c 7.326407,0 13.211725,5.85976 13.211725,13.11205 0,7.11208 -5.640938,12.86629 -12.755162,13.10332 0.912027,-2.37615 1.413586,-4.95222 1.413586,-7.64282 0,-6.86126 -3.245737,-12.97989 -8.287429,-16.92488 1.896947,-1.04964 4.08257,-1.64767 6.41728,-1.64767 z m -19.792496,1.04022 c 9.788307,0 17.662369,7.82846 17.662369,17.53233 0,9.69288 -7.874062,17.52232 -17.662369,17.52232 -9.777108,0 -17.65227,-7.82944 -17.65227,-17.52232 0,-9.70387 7.875162,-17.53233 17.65227,-17.53233 z m -19.842093,29.18355 c 0.569254,0 1.136008,0.027 1.697663,0.075 2.059333,3.1361 4.917501,5.7087 8.284628,7.4291 -5.933519,2.0292 -11.053404,5.8372 -14.729406,10.7882 l -15.338458,0 c 0.995319,-10.2913 9.591223,-18.2926 20.085573,-18.2926 z m 39.634589,0 c 10.494245,0 19.090255,8.0013 20.085575,18.2926 l -15.288463,0 c -3.675203,-4.9499 -8.793988,-8.7575 -14.726007,-10.7869 3.371627,-1.7213 6.232995,-4.296 8.293728,-7.4351 0.541256,-0.045 1.086912,-0.071 1.635167,-0.071 z m -19.792496,9.8711 c 1.457182,0 2.886266,0.1189 4.279353,0.344 l -4.278353,4.1804 -4.274054,-4.1813 c 1.391187,-0.2245 2.818072,-0.3431 4.273054,-0.3431 z m -8.814286,1.4961 6.814448,6.6667 0,16.6508 -24.589808,0 c 0.791536,-10.8469 7.969854,-19.8753 17.77536,-23.3175 z m 17.635471,0 c 9.802106,3.444 16.977525,12.4706 17.768861,23.315 l -24.589908,0 0,-16.6505 z" fill="#000000" fill-opacity="1" fill-rule="evenodd" stroke="none" marker="none" visibility="visible" display="inline" overflow="visible"/></g><text x="0" y="115" fill="#000000" font-size="5px" font-weight="bold" font-family="'Helvetica Neue', Helvetica, Arial-Unicode, Arial, Sans-serif">Created by GreenHill</text><text x="0" y="120" fill="#000000" font-size="5px" font-weight="bold" font-family="'Helvetica Neue', Helvetica, Arial-Unicode, Arial, Sans-serif">from the Noun Project</text></svg>