<svg xmlns="http://www.w3.org/2000/svg" viewBox="0 0 32 40" x="0px" y="0px"><title>Artboard 10</title><g data-name="Layer 11"><path d="M28.85,17.31a5,5,0,0,0-2-3.56V6.94a2.67,2.67,0,0,0-2-2.57,35,35,0,0,0-8.62-1.09h-.36A35,35,0,0,0,7.2,4.37a2.67,2.67,0,0,0-2,2.57v6.8a4.29,4.29,0,0,0-.6.5,5,5,0,0,0-1.43,3.07A1.72,1.72,0,0,0,1.5,19v4.5a1.73,1.73,0,0,0,1.73,1.73H5v2.33a1.14,1.14,0,0,0,1.13,1.14H7.4a1.14,1.14,0,0,0,1.13-1.14V25.25H23.47v2.33a1.14,1.14,0,0,0,1.13,1.14h1.24A1.14,1.14,0,0,0,27,27.58V25.25h1.8a1.73,1.73,0,0,0,1.73-1.73V19A1.72,1.72,0,0,0,28.85,17.31Zm-4.9-5a.47.47,0,0,1-.47.47H18.12a.47.47,0,0,1-.47-.47V9.17a.47.47,0,0,1,.47-.47h5.36a.47.47,0,0,1,.47.47ZM6.19,6.94a1.66,1.66,0,0,1,1.26-1.6A33.61,33.61,0,0,1,16,4.28a32.9,32.9,0,0,1,8.55,1.06,1.66,1.66,0,0,1,1.26,1.6v6.22l-.14,0a4,4,0,0,0-.67-.21l-.17-.05a1.32,1.32,0,0,0,.12-.57V9.17A1.47,1.47,0,0,0,23.48,7.7H18.12a1.47,1.47,0,0,0-1.47,1.47v3.12a1.51,1.51,0,0,0,.08.48H15.27a1.51,1.51,0,0,0,.08-.48V9.17A1.47,1.47,0,0,0,13.88,7.7H8.52A1.47,1.47,0,0,0,7.05,9.17v3.12a1.32,1.32,0,0,0,.12.57L7,12.91a4.48,4.48,0,0,0-.71.22l-.11,0Zm8.16,5.35a.47.47,0,0,1-.47.47H8.52a.47.47,0,0,1-.47-.47V9.17a.47.47,0,0,1,.47-.47h5.36a.47.47,0,0,1,.47.47ZM5.3,15A3.33,3.33,0,0,1,6,14.42a3.93,3.93,0,0,1,2.19-.65h15.7a3.93,3.93,0,0,1,2.19.65,4,4,0,0,1,1.81,2.88H4.15A4,4,0,0,1,5.3,15ZM7.53,27.58a.13.13,0,0,1-.13.14H6.16A.13.13,0,0,1,6,27.58V25.25h1.5Zm18.44,0a.13.13,0,0,1-.13.14H24.6a.13.13,0,0,1-.13-.14V25.25H26Zm3.53-4.06a.73.73,0,0,1-.73.73H3.23a.73.73,0,0,1-.73-.73V19a.73.73,0,0,1,.73-.72H28.77a.73.73,0,0,1,.73.72Z"/></g><text x="0" y="47" fill="#000000" font-size="5px" font-weight="bold" font-family="'Helvetica Neue', Helvetica, Arial-Unicode, Arial, Sans-serif">Created by Kamelo Art</text><text x="0" y="52" fill="#000000" font-size="5px" font-weight="bold" font-family="'Helvetica Neue', Helvetica, Arial-Unicode, Arial, Sans-serif">from the Noun Project</text></svg>