<svg xmlns="http://www.w3.org/2000/svg" xmlns:xlink="http://www.w3.org/1999/xlink" version="1.1" x="0px" y="0px" viewBox="0 0 140 175" style="enable-background:new 0 0 140 140;" xml:space="preserve"><path d="M125.4511719,94.4628906h-3.9365234c-0.6894531-1.5830078-2.7685547-5.7607422-7.0830078-10.0751953  c-4.9326172-4.9306641-13.8457031-10.9580078-28.2998047-11.6699219l-2.5849609-0.1230469  c-4.8427734-0.2753906-29.4921875-0.5546875-41.6894531,20.3916016c-0.0168457,0.0012207-0.0400391,0.0029297-0.0576172,0.0041504  V66.5576172h16.1982422c5.0712891,0,9.1962891-4.125,9.1962891-9.1962891V13.6484375  c0-5.0712891-4.125-9.1962891-9.1962891-9.1962891H14.1962891C9.125,4.4521484,5,8.5771484,5,13.6484375v43.7128906  c0,5.0712891,4.125,9.1962891,9.1962891,9.1962891h16.2041016v28.0693359  c-7.7911377,1.6481934-17.4665527,4.8649902-22.9277344,11.078125C5.8779297,107.5097656,5,109.9111328,5,112.4677734v6.0175781  c0,4.6464844,3.7753906,8.4267578,8.4169922,8.4267578h12.0151367c1.4892578,4.9873047,6.112793,8.6357422,11.5776367,8.6357422  s10.0883789-3.6484375,11.5776367-8.6357422h48.7314453c1.4892578,4.9873047,6.112793,8.6357422,11.5776367,8.6357422  c5.4655762,0,10.0893555-3.6484375,11.5786133-8.6357422h7.0444336c4.125,0,7.4804688-3.3603516,7.4804688-7.4902344v-15.4101562  C135,98.7460938,130.7167969,94.4628906,125.4511719,94.4628906z M14.1962891,64.5576172  C10.2285156,64.5576172,7,61.3291016,7,57.3613281V13.6484375c0-3.9677734,3.2285156-7.1962891,7.1962891-7.1962891h43.8017578  c3.9677734,0,7.1962891,3.2285156,7.1962891,7.1962891v43.7128906c0,3.9677734-3.2285156,7.1962891-7.1962891,7.1962891H14.1962891z   M39.7998047,66.5615234v26.6027832c-1.8024902,0.1811523-4.4023438,0.5063477-7.3994141,1.0656738v-27.668457H39.7998047z   M37.0097656,133.5478516c-5.5615234,0-10.0859375-4.5244141-10.0859375-10.0859375S31.4482422,113.375,37.0097656,113.375  s10.0859375,4.5253906,10.0859375,10.0869141S42.5712891,133.5478516,37.0097656,133.5478516z M108.8964844,133.5478516  c-5.5615234,0-10.0859375-4.5244141-10.0859375-10.0859375S103.3349609,113.375,108.8964844,113.375  s10.0869141,4.5253906,10.0869141,10.0869141S114.4580078,133.5478516,108.8964844,133.5478516z M133,119.421875  c0,3.0273438-2.4589844,5.4902344-5.4804688,5.4902344h-6.6317139c0.057251-0.4765625,0.0955811-0.9584961,0.0955811-1.4501953  c0-6.6650391-5.421875-12.0869141-12.0869141-12.0869141c-6.6640625,0-12.0859375,5.421875-12.0859375,12.0869141  c0,0.4916992,0.0383301,0.9736328,0.0955811,1.4501953H49.0001221c0.057251-0.4765625,0.0955811-0.9584961,0.0955811-1.4501953  c0-6.6650391-5.421875-12.0869141-12.0859375-12.0869141s-12.0859375,5.421875-12.0859375,12.0869141  c0,0.4916992,0.0383301,0.9736328,0.0955811,1.4501953h-11.602417C9.8789062,124.9121094,7,122.0292969,7,118.4853516v-6.0175781  c0-2.0683594,0.7001953-4,1.9726562-5.4404297c9.3994141-10.6923828,33.2958984-12.0644531,33.5371094-12.0771484  c0.3408203-0.0185547,0.6494141-0.2099609,0.8183594-0.5068359c11.5166016-20.3925781,35.4335938-20.1181641,40.1142578-19.8515625  l2.5927734,0.1240234c26.3330078,1.296875,33.7958984,20.8916016,33.8681641,21.0888672  c0.1435547,0.3945312,0.5195312,0.6582031,0.9394531,0.6582031h4.6083984c4.1621094,0,7.5488281,3.3867188,7.5488281,7.5488281  V119.421875z"/><path d="M106.5761719,87.5595703c-5.1835938-4.1005859-11.6464844-6.4931641-19.2080078-7.1103516  c-0.2763672-0.0234375-0.5527344,0.0722656-0.7587891,0.2617188c-0.2050781,0.1894531-0.3222656,0.4560547-0.3222656,0.7353516  v16.2949219c0,0.5527344,0.4472656,1,1,1h26.2724609c0.3398438,0,0.6572266-0.1728516,0.8408203-0.4589844  c0.1845703-0.2861328,0.2099609-0.6464844,0.0693359-0.9560547  C113.7138672,95.6699219,111.4316406,91.4013672,106.5761719,87.5595703z M88.2871094,96.7412109V82.5527344  c4.5820312,0.546875,17.6503906,3.0625,23.6591797,14.1884766H88.2871094z"/><path d="M81.125,80.1689453c-1.9599609,0-8.9208984,0.21875-16.2070312,3.0292969  c-7.7431641,2.9882812-12.9755859,7.7558594-15.5498047,14.1708984c-0.1240234,0.3076172-0.0869141,0.6572266,0.0996094,0.9326172  c0.1855469,0.2744141,0.4960938,0.4394531,0.828125,0.4394531h30.8779297c0.265625,0,0.5205078-0.1054688,0.7080078-0.2939453  s0.2929688-0.4433594,0.2919922-0.7089844L82.125,81.1660156C82.1230469,80.6152344,81.6757812,80.1689453,81.125,80.1689453z   M51.8359375,96.7412109c5.4179688-11.0214844,19.7294922-14.3212891,28.2919922-14.5585938l0.0429688,14.5585938H51.8359375z"/><path d="M37.0097656,118.5146484c-2.7275391,0-4.9472656,2.2197266-4.9472656,4.9472656s2.2197266,4.9472656,4.9472656,4.9472656  s4.9472656-2.2197266,4.9472656-4.9472656S39.7373047,118.5146484,37.0097656,118.5146484z M37.0097656,126.4091797  c-1.625,0-2.9472656-1.3222656-2.9472656-2.9472656s1.3222656-2.9472656,2.9472656-2.9472656  s2.9472656,1.3222656,2.9472656,2.9472656S38.6347656,126.4091797,37.0097656,126.4091797z"/><path d="M108.8964844,118.5146484c-2.7275391,0-4.9472656,2.2197266-4.9472656,4.9472656s2.2197266,4.9472656,4.9472656,4.9472656  s4.9472656-2.2197266,4.9472656-4.9472656S111.6240234,118.5146484,108.8964844,118.5146484z M108.8964844,126.4091797  c-1.625,0-2.9472656-1.3222656-2.9472656-2.9472656s1.3222656-2.9472656,2.9472656-2.9472656  s2.9472656,1.3222656,2.9472656,2.9472656S110.5214844,126.4091797,108.8964844,126.4091797z"/><path d="M38.7529297,14.4931641H22.3134766c-1.4833984,0-2.6904297,1.2070312-2.6904297,2.6904297v36.8681641  c0,1.4257812,1.1591797,2.5849609,2.5849609,2.5849609h6.7578125c1.4257812,0,2.5849609-1.1591797,2.5849609-2.5849609V41.8164062  h7.2021484c7.5332031,0,13.6611328-6.1279297,13.6611328-13.6611328S46.2861328,14.4931641,38.7529297,14.4931641z   M38.7529297,39.8164062h-8.2021484c-0.5527344,0-1,0.4472656-1,1v13.2353516c0,0.3222656-0.2626953,0.5849609-0.5849609,0.5849609  h-6.7578125c-0.3222656,0-0.5849609-0.2626953-0.5849609-0.5849609V17.1835938c0-0.3808594,0.3095703-0.6904297,0.6904297-0.6904297  h16.4394531c6.4296875,0,11.6611328,5.2314453,11.6611328,11.6621094  C50.4140625,34.5849609,45.1826172,39.8164062,38.7529297,39.8164062z"/><path d="M36.9541016,22.2626953h-6.4033203c-0.5527344,0-1,0.4472656-1,1v9.640625c0,0.5527344,0.4472656,1,1,1h6.4033203  c3.2089844,0,5.8203125-2.6113281,5.8203125-5.8203125S40.1630859,22.2626953,36.9541016,22.2626953z M36.9541016,31.9033203  h-5.4033203v-7.640625h5.4033203c2.1064453,0,3.8203125,1.7138672,3.8203125,3.8203125S39.0605469,31.9033203,36.9541016,31.9033203  z"/><text x="0" y="155" fill="#000000" font-size="5px" font-weight="bold" font-family="'Helvetica Neue', Helvetica, Arial-Unicode, Arial, Sans-serif">Created by DinosoftLab</text><text x="0" y="160" fill="#000000" font-size="5px" font-weight="bold" font-family="'Helvetica Neue', Helvetica, Arial-Unicode, Arial, Sans-serif">from the Noun Project</text></svg>