<svg xmlns="http://www.w3.org/2000/svg" viewBox="0 0 13 16.25" fill="none" x="0px" y="0px"><path d="M8.74296 7.93C8.47435 7.67045 8.11647 7.52372 7.74296 7.52C7.5575 7.51922 7.37371 7.55503 7.20212 7.62538C7.03052 7.69574 6.87449 7.79925 6.74296 7.93L6.37296 8.3C6.24296 8.3 5.80296 8.13 4.99296 7.3C4.54825 6.93831 4.20677 6.46576 4.00296 5.93L4.37296 5.56C4.63677 5.29404 4.78479 4.93461 4.78479 4.56C4.78479 4.18539 4.63677 3.82596 4.37296 3.56L3.00296 2.19C2.87328 2.05608 2.71782 1.94982 2.54595 1.87764C2.37408 1.80545 2.18937 1.76884 2.00296 1.77C1.81672 1.76997 1.63234 1.80711 1.46063 1.87923C1.28892 1.95134 1.13333 2.057 1.00296 2.19L0.572959 2.6C0.162959 3 -0.407041 4 0.432959 5.9C1.05443 7.19292 1.89711 8.36725 2.92296 9.37C4.73296 11.17 6.74296 12.3 8.18296 12.3C8.4607 12.3096 8.73753 12.2632 8.99696 12.1636C9.25638 12.064 9.49309 11.9131 9.69296 11.72L10.103 11.31C10.2348 11.179 10.3394 11.0232 10.4108 10.8515C10.4822 10.6799 10.5189 10.4959 10.5189 10.31C10.5189 10.1241 10.4822 9.94009 10.4108 9.76847C10.3394 9.59685 10.2348 9.44104 10.103 9.31L8.74296 7.93ZM9.40296 10.6L9.00296 11C8.89524 11.0986 8.76913 11.1749 8.63185 11.2247C8.49457 11.2745 8.34883 11.2967 8.20296 11.29C7.08296 11.29 5.29296 10.29 3.65296 8.65C1.51296 6.53 0.452959 4.14 1.28296 3.31L1.70296 2.9C1.74137 2.85891 1.78783 2.82617 1.83944 2.8038C1.89105 2.78144 1.94671 2.76993 2.00296 2.77C2.11572 2.77419 2.22279 2.82059 2.30296 2.9L3.65296 4.26C3.69287 4.29911 3.72458 4.34578 3.74622 4.3973C3.76787 4.44881 3.77902 4.50412 3.77902 4.56C3.77902 4.61588 3.76787 4.67119 3.74622 4.72271C3.72458 4.77422 3.69287 4.8209 3.65296 4.86L3.24296 5.26C2.65296 5.86 3.11296 6.87 4.24296 8.02C4.78438 8.69578 5.55125 9.15377 6.40296 9.31C6.51518 9.30842 6.62598 9.28463 6.72896 9.24001C6.83194 9.19538 6.92507 9.1308 7.00296 9.05L7.41296 8.64C7.49049 8.56403 7.59442 8.52102 7.70296 8.52C7.75841 8.51921 7.81347 8.5294 7.86496 8.55C7.91645 8.57059 7.96335 8.60118 8.00296 8.64L9.40296 10C9.44287 10.0391 9.47458 10.0858 9.49622 10.1373C9.51787 10.1888 9.52902 10.2441 9.52902 10.3C9.52902 10.3559 9.51787 10.4112 9.49622 10.4627C9.47458 10.5142 9.44287 10.5609 9.40296 10.6Z" fill="black"/><path d="M8.63297 6.21C8.63297 6.34261 8.68565 6.46979 8.77942 6.56355C8.87319 6.65732 9.00037 6.71 9.13297 6.71C9.26558 6.71 9.39276 6.65732 9.48653 6.56355C9.58029 6.46979 9.63297 6.34261 9.63297 6.21C9.63033 5.22686 9.23861 4.28474 8.54342 3.58955C7.84824 2.89436 6.90612 2.50264 5.92297 2.5C5.79037 2.5 5.66319 2.55268 5.56942 2.64645C5.47565 2.74021 5.42297 2.86739 5.42297 3C5.42297 3.13261 5.47565 3.25979 5.56942 3.35355C5.66319 3.44732 5.79037 3.5 5.92297 3.5C6.6409 3.50263 7.32867 3.789 7.83632 4.29665C8.34398 4.8043 8.63034 5.49207 8.63297 6.21Z" fill="black"/><path d="M5.92297 0C5.79037 0 5.66319 0.0526784 5.56942 0.146447C5.47565 0.240215 5.42297 0.367392 5.42297 0.5C5.42297 0.632608 5.47565 0.759785 5.56942 0.853553C5.66319 0.947322 5.79037 1 5.92297 1C7.30394 1.00264 8.62759 1.5524 9.60408 2.52889C10.5806 3.50539 11.1303 4.82903 11.133 6.21C11.133 6.34261 11.1857 6.46979 11.2794 6.56355C11.3732 6.65732 11.5004 6.71 11.633 6.71C11.7656 6.71 11.8928 6.65732 11.9865 6.56355C12.0803 6.46979 12.133 6.34261 12.133 6.21C12.1303 4.56382 11.4752 2.98582 10.3112 1.82179C9.14716 0.65776 7.56916 0.00264447 5.92297 0Z" fill="black"/><text x="0" y="28" fill="#000000" font-size="5px" font-weight="bold" font-family="'Helvetica Neue', Helvetica, Arial-Unicode, Arial, Sans-serif">Created by Oliver Silvérus</text><text x="0" y="33" fill="#000000" font-size="5px" font-weight="bold" font-family="'Helvetica Neue', Helvetica, Arial-Unicode, Arial, Sans-serif">from the Noun Project</text></svg>