<svg xmlns="http://www.w3.org/2000/svg" xmlns:xlink="http://www.w3.org/1999/xlink" version="1.1" x="0px" y="0px" viewBox="0 0 64 80" style="enable-background:new 0 0 64 64;" xml:space="preserve"><g><path d="M62.515,1.143c-0.301-0.18-0.675-0.191-0.985-0.025L47,8.867L32.471,1.118c-0.295-0.157-0.646-0.157-0.941,0L17,8.867   L2.471,1.118C2.159,0.952,1.785,0.962,1.485,1.143C1.185,1.323,1,1.649,1,2v52c0,0.369,0.203,0.708,0.529,0.882l15,8   c0.295,0.157,0.646,0.157,0.941,0L32,55.133l14.529,7.749C46.677,62.961,46.838,63,47,63s0.323-0.039,0.471-0.118l15-8   C62.797,54.708,63,54.369,63,54V2C63,1.649,62.815,1.323,62.515,1.143z M61,53.4l-14,7.467l-14.529-7.749   C32.323,53.039,32.162,53,32,53s-0.323,0.039-0.471,0.118L17,60.867l-3-1.6V51h3c2.206,0,4-1.794,4-4   c0-1.906-1.34-3.504-3.126-3.904C17.957,42.736,18,42.368,18,42c0-2.757-2.243-5-5-5s-5,2.243-5,5c0,0.368,0.043,0.736,0.126,1.096   C6.34,43.496,5,45.094,5,47c0,2.206,1.794,4,4,4h3v7.2l-9-4.8V3.667l13.529,7.216c0.295,0.157,0.646,0.157,0.941,0L31,3.667V31h2   V3.667l13.529,7.216c0.295,0.157,0.646,0.157,0.941,0L61,3.667V53.4z M10.442,43.541C10.148,43.057,10,42.538,10,42   c0-1.654,1.346-3,3-3s3,1.346,3,3c0,0.538-0.148,1.057-0.442,1.541c-0.205,0.339-0.191,0.767,0.036,1.091   c0.228,0.325,0.626,0.486,1.013,0.408C16.734,45.015,16.865,45,17,45c1.103,0,2,0.897,2,2s-0.897,2-2,2H9c-1.103,0-2-0.897-2-2   s0.897-2,2-2c0.135,0,0.266,0.015,0.394,0.04c0.386,0.077,0.785-0.083,1.013-0.408C10.634,44.308,10.647,43.88,10.442,43.541z"/><path d="M46,17c0,0.368,0.043,0.736,0.126,1.096C44.34,18.496,43,20.094,43,22c0,2.206,1.794,4,4,4h3v8h2v-8h3c2.206,0,4-1.794,4-4   c0-1.906-1.34-3.504-3.126-3.904C55.957,17.736,56,17.368,56,17c0-2.757-2.243-5-5-5S46,14.243,46,17z M48.442,18.541   C48.148,18.057,48,17.538,48,17c0-1.654,1.346-3,3-3s3,1.346,3,3c0,0.538-0.148,1.057-0.442,1.541   c-0.205,0.339-0.191,0.767,0.036,1.091c0.228,0.325,0.627,0.484,1.013,0.408C54.734,20.015,54.865,20,55,20c1.103,0,2,0.897,2,2   s-0.897,2-2,2h-8c-1.103,0-2-0.897-2-2s0.897-2,2-2c0.135,0,0.266,0.015,0.394,0.04c0.387,0.075,0.785-0.083,1.013-0.408   C48.634,19.308,48.647,18.88,48.442,18.541z"/><path d="M27,46c0-1.654,1.346-3,3-3h4c2.757,0,5-2.243,5-5s-2.243-5-5-5H12v2h22c1.654,0,3,1.346,3,3s-1.346,3-3,3h-4   c-2.757,0-5,2.243-5,5s2.243,5,5,5h14v-2H30C28.346,49,27,47.654,27,46z"/><path d="M56.65,37.768c-1.492-1.327-3.491-1.953-5.496-1.718C47.646,36.462,45,39.559,45,43.275c0,1.98,0.581,3.898,1.68,5.547   l4.488,6.733C51.354,55.833,51.666,56,52,56s0.646-0.167,0.832-0.445l4.488-6.733c1.099-1.648,1.68-3.566,1.68-5.547V43   C59,41.003,58.144,39.096,56.65,37.768z M57,43.275c0,1.584-0.465,3.119-1.344,4.438L52,53.197l-3.656-5.485   C47.465,46.394,47,44.859,47,43.251c0-2.635,1.928-4.926,4.389-5.215C51.596,38.012,51.802,38,52.006,38   c1.229,0,2.388,0.438,3.315,1.263C56.388,40.211,57,41.573,57,43V43.275z"/><path d="M52,40c-1.654,0-3,1.346-3,3s1.346,3,3,3s3-1.346,3-3S53.654,40,52,40z M52,44c-0.552,0-1-0.449-1-1s0.448-1,1-1   s1,0.449,1,1S52.552,44,52,44z"/><path d="M12.832,31.555l4.488-6.733c1.099-1.648,1.68-3.566,1.68-5.547V19c0-1.997-0.856-3.904-2.35-5.232   c-1.492-1.327-3.488-1.954-5.496-1.718C7.646,12.462,5,15.559,5,19.275c0,1.98,0.581,3.898,1.68,5.547l4.488,6.733   C11.354,31.833,11.666,32,12,32S12.646,31.833,12.832,31.555z M8.344,23.712C7.465,22.394,7,20.859,7,19.251   c0-2.635,1.928-4.926,4.389-5.215C11.596,14.012,11.802,14,12.006,14c1.229,0,2.388,0.438,3.315,1.263   C16.388,16.211,17,17.573,17,19v0.275c0,1.584-0.465,3.119-1.344,4.438L12,29.197L8.344,23.712z"/><path d="M15,19c0-1.654-1.346-3-3-3s-3,1.346-3,3s1.346,3,3,3S15,20.654,15,19z M11,19c0-0.551,0.448-1,1-1s1,0.449,1,1   s-0.448,1-1,1S11,19.551,11,19z"/></g><text x="0" y="79" fill="#000000" font-size="5px" font-weight="bold" font-family="'Helvetica Neue', Helvetica, Arial-Unicode, Arial, Sans-serif">Created by Template</text><text x="0" y="84" fill="#000000" font-size="5px" font-weight="bold" font-family="'Helvetica Neue', Helvetica, Arial-Unicode, Arial, Sans-serif">from the Noun Project</text></svg>