<svg xmlns="http://www.w3.org/2000/svg" xmlns:cc="http://creativecommons.org/ns#" xmlns:dc="http://purl.org/dc/elements/1.1/" xmlns:rdf="http://www.w3.org/1999/02/22-rdf-syntax-ns#" version="1.1" viewBox="0 0 26.458 33.0725" x="0px" y="0px"><g transform="translate(0 -270.54)" shape-rendering="auto"><path d="m-18.817 73.527a1.4559 1.4559 0 0 0-1.4335 1.4764v4.3672h-12.522c-2.1782 0-3.9765 1.7988-3.9765 3.977v16.524a1.4559 1.4559 0 0 0 0 0.72864v45.638c0 2.1782 1.7983 3.9765 3.9765 3.9765h89.172c2.1782 0 3.9786-1.7983 3.9786-3.9765v-44.547h1.3751a1.4559 1.4559 0 1 0 0-2.9104h-1.3751v-15.433c0-2.1782-1.8004-3.977-3.9786-3.977h-13.57v-4.3672a1.4559 1.4559 0 0 0-1.4785-1.4764 1.4559 1.4559 0 0 0-1.4335 1.4764v4.3672h-17.145v-4.3672a1.4559 1.4559 0 0 0-1.4785-1.4764 1.4559 1.4559 0 0 0-1.4335 1.4764v4.3672h-17.145v-4.3672a1.4559 1.4559 0 0 0-1.4764-1.4764 1.4559 1.4559 0 0 0-1.4335 1.4764v4.3672h-17.147v-4.3672a1.4559 1.4559 0 0 0-1.4764-1.4764zm-13.955 8.7561h12.522v6.7929h-3.3967a1.4561 1.4561 0 1 0 0 2.912h4.4938a1.4559 1.4559 0 0 0 0.7152 0h4.4943a1.4561 1.4561 0 0 0 0-2.912h-3.3967v-6.7929h17.147v6.7929h-3.3988a1.4561 1.4561 0 1 0 0 2.912h4.4959a1.4559 1.4559 0 0 0 0.7152 0h4.4943a1.4561 1.4561 0 0 0 0-2.912h-3.3967v-6.7929h17.145v6.7929h-3.3967a1.4561 1.4561 0 1 0 0 2.912h9.7054a1.4561 1.4561 0 0 0 0-2.912h-3.3967v-6.7929h17.145v6.7929h-3.3967a1.4561 1.4561 0 1 0 0 2.912h9.7054a1.4561 1.4561 0 0 0 0-2.912h-3.3967v-6.7929h13.57c0.61564 0 1.0666 0.44889 1.0666 1.0645v15.433h-91.305v-15.433c0-0.61564 0.45095-1.0645 1.0666-1.0645zm-1.0666 19.408h91.305v44.547c0 0.61564-0.45096 1.0666-1.0666 1.0666h-89.172c-0.61565 0-1.0666-0.45096-1.0666-1.0666zm12.352 6.7949c-1.9786 0-3.6173 1.6366-3.6173 3.6153v5.3826c0 1.9786 1.6387 3.6174 3.6173 3.6174h5.3831c1.9787 0 3.6168-1.6387 3.6168-3.6174v-5.3826c0-1.9786-1.6382-3.6153-3.6168-3.6153zm20.703 0c-1.9786 0-3.6174 1.6366-3.6174 3.6153v5.3826c0 1.9786 1.6387 3.6174 3.6174 3.6174h5.3831c1.9786 0 3.6168-1.6387 3.6168-3.6174v-5.3826c0-1.9786-1.6382-3.6153-3.6168-3.6153zm20.703 0c-1.9786 0-3.6153 1.6366-3.6153 3.6153v5.3826c0 1.9786 1.6366 3.6174 3.6153 3.6174h5.3831c1.9786 0 3.6168-1.6387 3.6168-3.6174v-5.3826c0-1.9786-1.6382-3.6153-3.6168-3.6153zm20.705 0c-1.9787 0-3.6174 1.6366-3.6174 3.6153v5.3826c0 1.9786 1.6387 3.6174 3.6174 3.6174h5.3811c1.9786 0 3.6168-1.6387 3.6168-3.6174v-5.3826c0-1.9786-1.6382-3.6153-3.6168-3.6153zm-62.111 2.9099h5.3831c0.41609 0 0.70487 0.2893 0.70487 0.70538v5.3826c0 0.41608-0.28878 0.70538-0.70487 0.70538h-5.3831c-0.41608 0-0.70487-0.2893-0.70487-0.70538v-5.3826c0-0.41608 0.28879-0.70538 0.70487-0.70538zm20.703 0h5.3831c0.41608 0 0.70487 0.2893 0.70487 0.70538v5.3826c0 0.41608-0.28878 0.70538-0.70487 0.70538h-5.3831c-0.41609 0-0.70487-0.2893-0.70487-0.70538v-5.3826c0-0.41608 0.28878-0.70538 0.70487-0.70538zm20.703 0h5.3831c0.41609 0 0.70487 0.2893 0.70487 0.70538v5.3826c0 0.41608-0.28878 0.70538-0.70487 0.70538h-5.3831c-0.41608 0-0.70487-0.2893-0.70487-0.70538v-5.3826c0-0.41608 0.28879-0.70538 0.70487-0.70538zm20.705 0h5.3811c0.41608 0 0.70487 0.2893 0.70487 0.70538v5.3826c0 0.41608-0.28879 0.70538-0.70487 0.70538h-5.3811c-0.41608 0-0.70694-0.2893-0.70694-0.70538v-5.3826c0-0.41608 0.29085-0.70538 0.70694-0.70538zm-62.111 16.498c-1.9786 0-3.6173 1.6387-3.6173 3.6174v5.3826c0 1.9787 1.6387 3.6174 3.6173 3.6174h5.3831c1.9787 0 3.6168-1.6387 3.6168-3.6174v-5.3826c0-1.9786-1.6382-3.6174-3.6168-3.6174zm20.703 0c-1.9786 0-3.6174 1.6387-3.6174 3.6174v5.3826c0 1.9787 1.6387 3.6174 3.6174 3.6174h5.3831c1.9786 0 3.6168-1.6387 3.6168-3.6174v-5.3826c0-1.9786-1.6382-3.6174-3.6168-3.6174zm20.703 0c-1.9786 0-3.6153 1.6387-3.6153 3.6174v5.3826c0 1.9787 1.6366 3.6174 3.6153 3.6174h5.3831c1.9786 0 3.6168-1.6387 3.6168-3.6174v-5.3826c0-1.9786-1.6382-3.6174-3.6168-3.6174zm20.705 0c-1.9787 0-3.6174 1.6387-3.6174 3.6174v5.3826c0 1.9787 1.6387 3.6174 3.6174 3.6174h5.3811c1.9786 0 3.6168-1.6387 3.6168-3.6174v-5.3826c0-1.9786-1.6382-3.6174-3.6168-3.6174zm-62.111 2.912h5.3831c0.41609 0 0.70487 0.28931 0.70487 0.70539v5.3826c0 0.41608-0.28878 0.70487-0.70487 0.70487h-5.3831c-0.41608 0-0.70487-0.28879-0.70487-0.70487v-5.3826c0-0.41608 0.28879-0.70539 0.70487-0.70539zm20.703 0h5.3831c0.41608 0 0.70487 0.28931 0.70487 0.70539v5.3826c0 0.41608-0.28878 0.70487-0.70487 0.70487h-5.3831c-0.41609 0-0.70487-0.28879-0.70487-0.70487v-5.3826c0-0.41608 0.28878-0.70539 0.70487-0.70539zm20.703 0h5.3831c0.41609 0 0.70487 0.28931 0.70487 0.70539v5.3826c0 0.41608-0.28878 0.70487-0.70487 0.70487h-5.3831c-0.41608 0-0.70487-0.28879-0.70487-0.70487v-5.3826c0-0.41608 0.28879-0.70539 0.70487-0.70539zm20.705 0h5.3811c0.41608 0 0.70487 0.28931 0.70487 0.70539v5.3826c0 0.41608-0.28879 0.70487-0.70487 0.70487h-5.3811c-0.41608 0-0.70694-0.28879-0.70694-0.70487v-5.3826c0-0.41608 0.29085-0.70539 0.70694-0.70539z" color="#000000" color-rendering="auto" dominant-baseline="auto" image-rendering="auto" solid-color="#000000" style="font-feature-settings:normal;font-variant-alternates:normal;font-variant-caps:normal;font-variant-ligatures:normal;font-variant-numeric:normal;font-variant-position:normal;isolation:auto;mix-blend-mode:normal;shape-padding:0;text-decoration-color:#000000;text-decoration-line:none;text-decoration-style:solid;text-indent:0;text-orientation:mixed;text-transform:none;white-space:normal;"/><path d="m5.3017 273.85a0.37675 0.37675 0 0 0-0.37034 0.38211v1.1306h-3.2408c-0.56369 0-1.0291 0.4654-1.0291 1.0291v16.276c0 0.56368 0.46541 1.0286 1.0291 1.0286h23.077c0.56369 0 1.0291-0.46493 1.0291-1.0286v-16.276c0-0.5637-0.46541-1.0291-1.0291-1.0291h-3.5131v-1.1306a0.37675 0.37675 0 0 0-0.38162-0.38211 0.37675 0.37675 0 0 0-0.37083 0.38211v1.1306h-4.4367v-1.1306a0.37675 0.37675 0 0 0-0.38358-0.38211 0.37675 0.37675 0 0 0-0.37083 0.38211v1.1306h-4.4362v-1.1306a0.37675 0.37675 0 0 0-0.38211-0.38211 0.37675 0.37675 0 0 0-0.37083 0.38211v1.1306h-4.4382v-1.1306a0.37675 0.37675 0 0 0-0.38211-0.38211zm-3.6112 2.2657h3.2408v1.7575h-0.879a0.37727 0.37727 0 1 0 0 0.75441h1.1409a0.37675 0.37675 0 0 0 0.22809 0h1.1414a0.37727 0.37727 0 1 0 0-0.75441h-0.879v-1.7575h4.4382v1.7575h-0.88047a0.37727 0.37727 0 1 0 0 0.75441h1.1429a0.37675 0.37675 0 0 0 0.2276 0h1.1414a0.37727 0.37727 0 1 0 0-0.75441h-0.87851v-1.7575h4.4362v1.7575h-0.87851a0.37727 0.37727 0 1 0 0 0.75441h1.2292a0.37727 0.37727 0 0 0 0.05003 0h1.2327a0.37727 0.37727 0 1 0 0-0.75441h-0.879v-1.7575h4.4367v1.7575h-0.879a0.37727 0.37727 0 1 0 0 0.75441h1.1409a0.37675 0.37675 0 0 0 0.22809 0h1.1414a0.37727 0.37727 0 1 0 0-0.75441h-0.879v-1.7575h3.5131c0.15932 0 0.27469 0.11683 0.27469 0.27616v3.9933h-23.628v-3.9933c0-0.15933 0.11684-0.27616 0.27616-0.27616zm-0.27616 5.0238h23.628v11.528c0 0.15932-0.11537 0.2742-0.27469 0.2742h-23.077c-0.15932 0-0.27616-0.11488-0.27616-0.2742zm3.1962 1.7575c-0.51204 0-0.93443 0.42434-0.93443 0.93639v1.3926c0 0.51204 0.42239 0.9359 0.93443 0.9359h1.394c0.51204 0 0.93639-0.42386 0.93639-0.9359v-1.3926c0-0.51205-0.42435-0.93639-0.93639-0.93639zm5.3579 0c-0.51204 0-0.93443 0.42434-0.93443 0.93639v1.3926c0 0.51204 0.42239 0.9359 0.93443 0.9359h1.394c0.51204 0 0.9359-0.42386 0.9359-0.9359v-1.3926c0-0.51205-0.42386-0.93639-0.9359-0.93639zm5.3574 0c-0.51204 0-0.9359 0.42434-0.9359 0.93639v1.3926c0 0.51204 0.42386 0.9359 0.9359 0.9359h1.3945c0.51204 0 0.9359-0.42386 0.9359-0.9359v-1.3926c0-0.51205-0.42386-0.93639-0.9359-0.93639zm5.3579 0c-0.51204 0-0.9359 0.42434-0.9359 0.93639v1.3926c0 0.51204 0.42386 0.9359 0.9359 0.9359h1.394c0.51204 0 0.93639-0.42386 0.93639-0.9359v-1.3926c0-0.51205-0.42435-0.93639-0.93639-0.93639zm-16.073 0.75294h1.394c0.10768 0 0.18149 0.0758 0.18149 0.18345v1.3926c0 0.10768-0.07382 0.18149-0.18149 0.18149h-1.394c-0.10768 0-0.18198-0.0739-0.18198-0.18149v-1.3926c0-0.10768 0.074305-0.18345 0.18198-0.18345zm5.3579 0h1.394c0.10768 0 0.18149 0.0758 0.18149 0.18345v1.3926c0 0.10768-0.07382 0.18149-0.18149 0.18149h-1.394c-0.10768 0-0.18198-0.0739-0.18198-0.18149v-1.3926c0-0.10768 0.07431-0.18345 0.18198-0.18345zm5.3574 0h1.3945c0.10768 0 0.18149 0.0758 0.18149 0.18345v1.3926c0 0.10768-0.07382 0.18149-0.18149 0.18149h-1.3945c-0.10768 0-0.18149-0.0739-0.18149-0.18149v-1.3926c0-0.10768 0.07381-0.18345 0.18149-0.18345zm5.3579 0h1.394c0.10768 0 0.18198 0.0758 0.18198 0.18345v1.3926c0 0.10768-0.0743 0.18149-0.18198 0.18149h-1.394c-0.10768 0-0.18149-0.0739-0.18149-0.18149v-1.3926c0-0.10768 0.07382-0.18345 0.18149-0.18345zm-16.073 4.2694c-0.51204 0-0.93443 0.42434-0.93443 0.93639v1.3921c0 0.51205 0.42239 0.93639 0.93443 0.93639h1.394c0.51204 0 0.93639-0.42434 0.93639-0.93639v-1.3921c0-0.51205-0.42435-0.93639-0.93639-0.93639zm5.3579 0c-0.51204 0-0.93443 0.42434-0.93443 0.93639v1.3921c0 0.51205 0.42239 0.93639 0.93443 0.93639h1.394c0.51204 0 0.9359-0.42434 0.9359-0.93639v-1.3921c0-0.51205-0.42386-0.93639-0.9359-0.93639zm5.3574 0c-0.51204 0-0.9359 0.42434-0.9359 0.93639v1.3921c0 0.51205 0.42386 0.93639 0.9359 0.93639h1.3945c0.51204 0 0.9359-0.42434 0.9359-0.93639v-1.3921c0-0.51205-0.42386-0.93639-0.9359-0.93639zm5.3579 0c-0.51204 0-0.9359 0.42434-0.9359 0.93639v1.3921c0 0.51205 0.42386 0.93639 0.9359 0.93639h1.394c0.51204 0 0.93639-0.42434 0.93639-0.93639v-1.3921c0-0.51205-0.42435-0.93639-0.93639-0.93639zm-16.073 0.75441h1.394c0.10768 0 0.18149 0.0743 0.18149 0.18198v1.3921c0 0.10768-0.07382 0.18345-0.18149 0.18345h-1.394c-0.10768 0-0.18198-0.0758-0.18198-0.18345v-1.3921c0-0.10768 0.074305-0.18198 0.18198-0.18198zm5.3579 0h1.394c0.10768 0 0.18149 0.0743 0.18149 0.18198v1.3921c0 0.10768-0.07382 0.18345-0.18149 0.18345h-1.394c-0.10768 0-0.18198-0.0757-0.18198-0.18345v-1.3921c0-0.10768 0.07431-0.18198 0.18198-0.18198zm5.3574 0h1.3945c0.10768 0 0.18149 0.0743 0.18149 0.18198v1.3921c0 0.10768-0.07382 0.18345-0.18149 0.18345h-1.3945c-0.10768 0-0.18149-0.0757-0.18149-0.18345v-1.3921c0-0.10768 0.07381-0.18198 0.18149-0.18198zm5.3579 0h1.394c0.10768 0 0.18198 0.0743 0.18198 0.18198v1.3921c0 0.10768-0.0743 0.18345-0.18198 0.18345h-1.394c-0.10768 0-0.18149-0.0757-0.18149-0.18345v-1.3921c0-0.10768 0.07382-0.18198 0.18149-0.18198z" color="#000000" color-rendering="auto" dominant-baseline="auto" image-rendering="auto" solid-color="#000000" style="font-feature-settings:normal;font-variant-alternates:normal;font-variant-caps:normal;font-variant-ligatures:normal;font-variant-numeric:normal;font-variant-position:normal;isolation:auto;mix-blend-mode:normal;shape-padding:0;text-decoration-color:#000000;text-decoration-line:none;text-decoration-style:solid;text-indent:0;text-orientation:mixed;text-transform:none;white-space:normal;"/></g><text x="0" y="41.458" fill="#000000" font-size="5px" font-weight="bold" font-family="'Helvetica Neue', Helvetica, Arial-Unicode, Arial, Sans-serif">Created by Astoe Design</text><text x="0" y="46.458" fill="#000000" font-size="5px" font-weight="bold" font-family="'Helvetica Neue', Helvetica, Arial-Unicode, Arial, Sans-serif">from the Noun Project</text></svg>