<svg xmlns="http://www.w3.org/2000/svg" xmlns:xlink="http://www.w3.org/1999/xlink" version="1.1" x="0px" y="0px" viewBox="0 0 100 125" enable-background="new 0 0 100 100" xml:space="preserve"><symbol viewBox="-27.299 -39.024 54.598 78.047"><path fill="none" d="M11.157,34.02c-1.275-1.85-3.408-3.026-5.733-3.026c-2.13,0-4.118,0.985-5.424,2.607   c-1.306-1.622-3.294-2.607-5.423-2.607c-2.325,0-4.457,1.176-5.734,3.026c-1.275-1.85-3.408-3.026-5.733-3.026   c-1.913,0-3.648,0.776-4.908,2.029v-66.474c1.26,1.253,2.995,2.029,4.908,2.029c2.325,0,4.458-1.176,5.733-3.026   c1.277,1.85,3.409,3.026,5.734,3.026c2.129,0,4.117-0.986,5.423-2.607c1.306,1.622,3.294,2.607,5.424,2.607   c2.325,0,4.458-1.176,5.733-3.026c1.277,1.85,3.409,3.026,5.734,3.026c1.913,0,3.647-0.776,4.907-2.028v66.473   c-1.26-1.253-2.994-2.028-4.907-2.028C14.567,30.995,12.435,32.17,11.157,34.02z"/><path fill="#000000" stroke="#000000" stroke-width="3" stroke-miterlimit="10" d="M-20.463-37.524   c0.391,1.615,1.839,2.822,3.573,2.822c1.733,0,3.181-1.207,3.572-2.822h4.323c0.391,1.615,1.839,2.822,3.573,2.822   s3.182-1.207,3.573-2.822h3.701c0.391,1.615,1.839,2.822,3.573,2.822s3.182-1.207,3.573-2.822h4.322   c0.391,1.615,1.839,2.822,3.573,2.822s3.182-1.207,3.573-2.822h5.335v75.047h-5.266c-0.219-1.825-1.759-3.25-3.641-3.25   s-3.423,1.425-3.641,3.25H9.065c-0.219-1.825-1.759-3.25-3.641-3.25s-3.423,1.425-3.641,3.25h-3.564   c-0.219-1.825-1.759-3.25-3.641-3.25s-3.423,1.425-3.641,3.25h-4.186c-0.219-1.825-1.758-3.25-3.641-3.25   c-1.883,0-3.423,1.425-3.641,3.25h-5.267v-75.047H-20.463z"/></symbol><symbol viewBox="-30.282 -48.056 60.563 94.113"><path fill="#000000" stroke="#000000" stroke-width="6" stroke-miterlimit="10" d="M16.006,43.056   c-3.233-4.883-8.77-8.108-15.065-8.108s-11.832,3.225-15.065,8.108h-10.584v-88.113h10.584c3.233,4.883,8.77,8.108,15.065,8.108   s11.832-3.224,15.065-8.108H26.59v88.113H16.006z"/><line fill="none" stroke="#000000" stroke-width="5" stroke-linecap="round" stroke-linejoin="round" stroke-miterlimit="10" stroke-dasharray="7,8" x1="27.781" y1="-20.755" x2="-27.782" y2="-20.755"/></symbol><symbol viewBox="-24.712 -42.833 54.356 85.667"><path fill="#000000" stroke="#000000" stroke-width="5" stroke-miterlimit="10" d="M17.181,40.333h-4.475   c-0.466-2.355-2.539-4.131-5.031-4.131c-2.491,0-4.565,1.776-5.03,4.131h-4.883c-0.466-2.355-2.539-4.131-5.031-4.131   c-2.491,0-4.565,1.776-5.03,4.131h-4.883c-0.466-2.355-2.539-4.131-5.03-4.131v-72.023c2.622,0,4.76-1.974,5.069-4.512h4.806   c0.309,2.539,2.447,4.512,5.069,4.512c2.622,0,4.76-1.974,5.069-4.512h4.806c0.309,2.539,2.447,4.512,5.069,4.512   c2.622,0,4.76-1.974,5.069-4.512h4.398c0.309,2.539,2.447,4.512,5.069,4.512v72.023C19.72,36.202,17.647,37.978,17.181,40.333z"/><line fill="none" stroke="#000000" stroke-width="4" stroke-linecap="round" stroke-linejoin="round" stroke-miterlimit="10" stroke-dasharray="7,6" x1="-22.644" y1="-17.395" x2="27.644" y2="-17.395"/></symbol><symbol viewBox="-23.972 -42.094 47.944 84.188"><g><path fill="#000000" stroke="#000000" stroke-width="3.521" stroke-miterlimit="10" d="M17.182,40.333h-4.475    c-0.466-2.355-2.539-4.131-5.031-4.131c-2.491,0-4.565,1.776-5.03,4.131h-4.883c-0.466-2.355-2.539-4.131-5.031-4.131    c-2.491,0-4.565,1.776-5.03,4.131h-4.883c-0.466-2.355-2.539-4.131-5.03-4.131v-72.023c2.622,0,4.76-1.974,5.069-4.512h4.806    c0.309,2.539,2.447,4.512,5.069,4.512c2.622,0,4.76-1.974,5.069-4.512h4.806c0.309,2.539,2.447,4.512,5.069,4.512    c2.622,0,4.76-1.974,5.069-4.512h4.398c0.309,2.539,2.447,4.512,5.069,4.512v72.023C19.721,36.202,17.648,37.978,17.182,40.333z"/></g><polygon fill="#000000" stroke="#000000" stroke-width="3.8113" stroke-miterlimit="10" points="5.14,17.02 11.952,13.853    8.431,7.217 7.524,-0.241 0.124,1.057 -7.248,-0.385 -8.301,7.053 -11.951,13.62 -5.201,16.919 -0.084,22.42  "/></symbol><symbol id="a" viewBox="-21.087 -31.266 42.17 72.87"><path fill="#000000" stroke="#000000" stroke-width="5" stroke-miterlimit="10" d="M6.373,39.104h5.21c0-3.87,3.13-7,7-7v-53.87   c-3.87,0-7-3.14-7-7h-5.21"/><path fill="#000000" stroke="#000000" stroke-width="5" stroke-miterlimit="10" d="M-6.377-28.766h-5.21c0,3.86-3.13,7-7,7v53.87   c3.87,0,7,3.13,7,7h5.21"/><line fill="none" stroke="#000000" stroke-width="5" stroke-miterlimit="10" x1="2.373" y1="39.104" x2="-2.377" y2="39.104"/><line fill="none" stroke="#000000" stroke-width="5" stroke-miterlimit="10" x1="2.373" y1="-28.766" x2="-2.377" y2="-28.766"/><g><path stroke="#000000" stroke-width="0.9" stroke-miterlimit="10" d="M-9.901-10.118c0-0.994-0.806-1.8-1.8-1.8    s-1.8,0.806-1.8,1.8s0.806,1.8,1.8,1.8S-9.901-9.124-9.901-10.118z"/><path stroke="#000000" stroke-width="0.9" stroke-miterlimit="10" d="M-2.101-10.118c0-0.994-0.806-1.8-1.8-1.8    s-1.8,0.806-1.8,1.8s0.806,1.8,1.8,1.8S-2.101-9.124-2.101-10.118z"/><path stroke="#000000" stroke-width="0.9" stroke-miterlimit="10" d="M5.699-10.118c0-0.994-0.806-1.8-1.8-1.8s-1.8,0.806-1.8,1.8    s0.806,1.8,1.8,1.8S5.699-9.124,5.699-10.118z"/><path stroke="#000000" stroke-width="0.9" stroke-miterlimit="10" d="M13.499-10.118c0-0.994-0.806-1.8-1.8-1.8    s-1.8,0.806-1.8,1.8s0.806,1.8,1.8,1.8S13.499-9.124,13.499-10.118z"/></g></symbol><symbol viewBox="-21.086 -31.266 42.17 72.87"><use xlink:href="#a" width="42.17" height="72.87" x="-21.087" y="-31.266" transform="matrix(1 0 0 1 6.996482e-004 -2.671033e-004)" overflow="visible"/><line fill="none" stroke="#000000" stroke-width="4" stroke-miterlimit="10" x1="9.224" y1="13.75" x2="-9.223" y2="13.75"/></symbol><g display="none"><path display="inline" fill="#000000" d="M457,603.978H-782.377c-1.65,0-3-1.35-3-3v-742.857c0-1.65,1.35-3,3-3H457   c1.65,0,3,1.35,3,3v742.857C460,602.628,458.65,603.978,457,603.978z"/></g><g><path d="M91.311,55.155l-1.429,0.112c-2.126,0.161-4.06-1.112-4.733-3.108l-0.161-0.48c-0.674-1.997,0.101-4.193,1.883-5.34   l1.206-0.776l-3.266-9.686c-0.306-0.908-0.774-1.716-1.351-2.415c0.095-0.623,0.123-1.26,0.061-1.904   c-0.194-2.042-1.167-3.883-2.74-5.183l-7.949-6.569l-1.155,0.848c-1.707,1.255-4.035,1.193-5.661-0.149l-0.389-0.322   c-1.625-1.342-2.124-3.617-1.214-5.531l0.615-1.295L57.15,6.845c-3.256-2.69-8.096-2.23-10.789,1.025l-6.379,7.718l0.504,5.294   c0.047,0.497-0.333,0.956-0.829,1.003l-5.294,0.503L6.744,55.806c-2.691,3.257-2.231,8.097,1.025,10.789l7.89,6.52l1.13-0.725   c0.762-0.489,1.639-0.715,2.512-0.712c0.496,0.491,0.888,1.091,1.117,1.769l0.161,0.479c0.632,1.874-0.045,4.005-1.645,5.184   l-1.081,0.796l3.299,9.785c1.077,3.195,4.069,5.215,7.269,5.215c0.81,0,1.633-0.129,2.441-0.402l41.082-13.851l2.362-4.765   c0.145-0.293,0.395-0.414,0.531-0.459c0.135-0.046,0.409-0.101,0.7,0.044l4.765,2.362l9.489-3.198   c4.004-1.35,6.162-5.706,4.813-9.71L91.311,55.155z M16.024,68.644l-5.911-4.885C8.42,62.359,8.181,59.843,9.58,58.15   l26.648-32.244l3.776-0.359c0.919-0.087,1.745-0.446,2.419-0.982c-0.088,0.613,0.13,1.256,0.643,1.68l3.545,2.93   c0.343,0.283,0.758,0.421,1.171,0.421c0.529,0,1.055-0.228,1.419-0.667c0.647-0.783,0.537-1.942-0.246-2.59l-3.545-2.93   c-0.512-0.423-1.184-0.516-1.771-0.314c0.4-0.762,0.597-1.642,0.509-2.561l-0.359-3.777l5.408-6.543   c1.399-1.692,3.914-1.934,5.609-0.533l5.771,4.77c-0.852,3.102,0.162,6.466,2.703,8.565l0.391,0.324   c2.545,2.102,6.039,2.462,8.924,1.042l5.842,4.828c0.815,0.674,1.32,1.631,1.422,2.695c0.102,1.064-0.215,2.099-0.889,2.914   l-5.408,6.543l-3.776,0.359c-1.22,0.116-2.323,0.702-3.107,1.65c-0.784,0.949-1.152,2.143-1.036,3.363l0.359,3.777L39.354,82.756   c-0.674,0.815-1.631,1.32-2.694,1.421c-1.069,0.102-2.1-0.215-2.915-0.888l-5.981-4.943c0.66-3.001-0.386-6.148-2.813-8.154   l-0.389-0.321C22.136,67.867,18.851,67.43,16.024,68.644z M88.616,71.151l-8.044,2.712l-3.399-1.685   c-1.098-0.544-2.346-0.626-3.511-0.234c-1.166,0.393-2.107,1.214-2.652,2.312l-1.685,3.399L29.687,91.019   c-2.079,0.703-4.347-0.421-5.048-2.503l-2.479-7.353c0.636-0.654,1.135-1.406,1.518-2.207l-0.237,0.591l7.96,6.579   c1.382,1.142,3.085,1.75,4.863,1.75c0.246,0,0.494-0.012,0.743-0.035c2.043-0.194,3.883-1.167,5.183-2.74l8.099-9.8l12.767-4.304   l-1.176-3.486l-7.143,2.408l11.577-14.008l1.299,3.851c0.259,0.768,0.976,1.252,1.743,1.252c0.194,0,0.393-0.031,0.588-0.097   c0.963-0.325,1.479-1.368,1.155-2.331l-1.47-4.358c-0.174-0.515-0.556-0.897-1.019-1.096l1.198-1.449l-0.504-5.294   c-0.031-0.326,0.118-0.56,0.209-0.67c0.092-0.11,0.294-0.301,0.62-0.332l5.294-0.503l6.063-7.336l2.226,6.601   c-2.358,2.188-3.27,5.581-2.216,8.706l0.161,0.479v0.001c1.054,3.125,3.834,5.274,7.035,5.588l2.421,7.182   C91.82,68.184,90.698,70.449,88.616,71.151z"/><path d="M73.156,64.686c-0.324-0.962-1.364-1.479-2.331-1.156c-0.962,0.325-1.479,1.368-1.155,2.331l1.469,4.357   c0.259,0.768,0.975,1.252,1.743,1.252c0.194,0,0.393-0.031,0.588-0.097c0.962-0.325,1.479-1.368,1.155-2.331L73.156,64.686z"/><path d="M55.118,36.205c0.343,0.283,0.758,0.421,1.171,0.421c0.529,0,1.055-0.228,1.419-0.667c0.647-0.783,0.537-1.942-0.246-2.59   l-3.545-2.93c-0.781-0.646-1.941-0.537-2.59,0.246c-0.647,0.783-0.537,1.942,0.246,2.59L55.118,36.205z"/><path d="M63.626,43.236c0.343,0.283,0.758,0.421,1.171,0.421c0.529,0,1.055-0.228,1.419-0.667c0.647-0.783,0.537-1.942-0.246-2.59   l-3.545-2.93c-0.781-0.646-1.94-0.537-2.59,0.246c-0.647,0.783-0.537,1.942,0.246,2.59L63.626,43.236z"/><rect x="31.282" y="32.254" transform="matrix(0.7708 0.637 -0.637 0.7708 36.6415 -10.649)" width="3.679" height="26.696"/><rect x="29.251" y="54.732" transform="matrix(0.6371 -0.7708 0.7708 0.6371 -30.5624 48.2346)" width="13.376" height="3.679"/><rect x="33.895" y="55.433" transform="matrix(-0.637 0.7708 -0.7708 -0.637 121.4859 57.3428)" width="26.696" height="3.679"/></g><text x="0" y="115" fill="#000000" font-size="5px" font-weight="bold" font-family="'Helvetica Neue', Helvetica, Arial-Unicode, Arial, Sans-serif">Created by Oksana Latysheva</text><text x="0" y="120" fill="#000000" font-size="5px" font-weight="bold" font-family="'Helvetica Neue', Helvetica, Arial-Unicode, Arial, Sans-serif">from the Noun Project</text></svg>