<svg id="Layer_1" data-name="Layer 1" xmlns="http://www.w3.org/2000/svg" viewBox="0 0 103 75"><path d="M23.4,60.82a4.7,4.7,0,1,0-4.7-4.7A4.69,4.69,0,0,0,23.4,60.82Zm0-7.8a3.2,3.2,0,1,1-3.2,3.2A3.29,3.29,0,0,1,23.4,53Z"/><path d="M23.4,49.92a4.7,4.7,0,1,0-4.7-4.7A4.69,4.69,0,0,0,23.4,49.92Zm0-7.8a3.2,3.2,0,1,1-3.2,3.2A3.29,3.29,0,0,1,23.4,42.12Z"/><path d="M23.4,39a2.8,2.8,0,0,0,2.8-2.8,2.86,2.86,0,0,0-2.8-2.8,2.8,2.8,0,1,0,0,5.6Zm0-4a1.3,1.3,0,1,1-1.3,1.3A1.32,1.32,0,0,1,23.4,35Z"/><path d="M79.6,60.82a4.7,4.7,0,1,0-4.7-4.7A4.69,4.69,0,0,0,79.6,60.82Zm0-7.8a3.2,3.2,0,1,1-3.2,3.2A3.16,3.16,0,0,1,79.6,53Z"/><path d="M79.6,49.92a4.7,4.7,0,1,0-4.7-4.7A4.69,4.69,0,0,0,79.6,49.92Zm0-7.8a3.2,3.2,0,1,1-3.2,3.2A3.16,3.16,0,0,1,79.6,42.12Z"/><path d="M79.6,39a2.8,2.8,0,1,0-2.8-2.8A2.8,2.8,0,0,0,79.6,39Zm0-4a1.3,1.3,0,1,1-1.3,1.3A1.26,1.26,0,0,1,79.6,35Z"/><path d="M89.5,66V29.92H69.7V66H61.1l-8.6-6.7V27.62a2.43,2.43,0,0,0,1.4-2.1v-5.6a4,4,0,0,0,1.7-3.3,4.1,4.1,0,0,0-8.2,0,4.16,4.16,0,0,0,1.7,3.3v5.6a2.21,2.21,0,0,0,1.4,2.1v31.8l-8.6,6.7H33.3V29.92H13.6V66H6.9c.4.6-.4,1.3,0,1.9H96.3c.4-.6-.4-1.3,0-1.9ZM31.4,66h-16V64h16Zm0-3.4h-16V31.82h16ZM50.6,66H45l5.5-4.3V66ZM49.4,18a2.3,2.3,0,0,1-.4-1.4,2.5,2.5,0,0,1,2.6-2.5,2.56,2.56,0,0,1,2.6,2.5,3.26,3.26,0,0,1-.4,1.4,2.33,2.33,0,0,0-2.1-1.3A2.27,2.27,0,0,0,49.4,18Zm2.1,8.3a.79.79,0,0,1-.8-.8.8.8,0,1,1,1.6,0A.79.79,0,0,1,51.5,26.32Zm.8-3a2.35,2.35,0,0,0-.8-.2,1.88,1.88,0,0,0-.8.2V19a.79.79,0,0,1,.8-.8.86.86,0,0,1,.8.8ZM52.5,66v-4.3L58,66Zm35.1,0h-16V64h16Zm0-3.4h-16V31.82h16Z"/><path d="M49,16.42v.2a3.26,3.26,0,0,0,.4,1.4Z"/></svg>