<?xml version="1.0" encoding="utf-8"?>
<!-- Generator: Adobe Illustrator 25.2.3, SVG Export Plug-In . SVG Version: 6.00 Build 0)  -->
<svg version="1.1" id="Layer_1" xmlns="http://www.w3.org/2000/svg" xmlns:xlink="http://www.w3.org/1999/xlink" x="0px" y="0px"
	 viewBox="0 0 90.9 78.2" style="enable-background:new 0 0 90.9 78.2;" xml:space="preserve">
<path d="M17.2,60.8c2.6,0,4.7-2.1,4.7-4.7c0-2.6-2.1-4.7-4.7-4.7c-2.6,0-4.7,2.1-4.7,4.7l0,0C12.5,58.7,14.6,60.8,17.2,60.8
	C17.2,60.8,17.2,60.8,17.2,60.8z M17.2,53c1.8,0,3.2,1.4,3.2,3.2s-1.4,3.2-3.2,3.2S14,58,14,56.2C14.1,54.5,15.5,53,17.2,53L17.2,53
	z"/>
<path d="M17.2,49.9c2.6,0,4.7-2.1,4.7-4.7c0-2.6-2.1-4.7-4.7-4.7c-2.6,0-4.7,2.1-4.7,4.7l0,0C12.5,47.8,14.6,49.9,17.2,49.9
	C17.2,49.9,17.2,49.9,17.2,49.9z M17.2,42.1c1.8,0,3.2,1.4,3.2,3.2s-1.4,3.2-3.2,3.2S14,47.1,14,45.3C14.1,43.6,15.5,42.2,17.2,42.1
	z"/>
<path d="M17.2,39c1.5,0,2.8-1.3,2.8-2.8c0-1.5-1.3-2.8-2.8-2.8c-1.5,0-2.8,1.3-2.8,2.8C14.4,37.7,15.7,39,17.2,39
	C17.2,39,17.2,39,17.2,39z M17.2,35c0.7,0,1.3,0.6,1.3,1.3s-0.6,1.3-1.3,1.3s-1.3-0.6-1.3-1.3l0,0C15.9,35.6,16.5,35,17.2,35z"/>
<path d="M73.4,60.8c2.6,0,4.7-2.1,4.7-4.7s-2.1-4.7-4.7-4.7c-2.6,0-4.7,2.1-4.7,4.7c0,0,0,0,0,0C68.7,58.7,70.8,60.8,73.4,60.8
	C73.4,60.8,73.4,60.8,73.4,60.8z M73.4,53c1.8,0,3.2,1.4,3.2,3.2s-1.4,3.2-3.2,3.2c-1.8,0-3.2-1.4-3.2-3.2c0,0,0,0,0,0
	c0-1.7,1.4-3.2,3.1-3.2C73.4,53,73.4,53,73.4,53L73.4,53z"/>
<path d="M73.4,49.9c2.6,0,4.7-2.1,4.7-4.7s-2.1-4.7-4.7-4.7c-2.6,0-4.7,2.1-4.7,4.7c0,0,0,0,0,0C68.7,47.8,70.8,49.9,73.4,49.9
	C73.4,49.9,73.4,49.9,73.4,49.9z M73.4,42.1c1.8,0,3.2,1.4,3.2,3.2s-1.4,3.2-3.2,3.2c-1.8,0-3.2-1.4-3.2-3.2c0,0,0,0,0,0
	C70.2,43.6,71.6,42.1,73.4,42.1C73.4,42.1,73.4,42.1,73.4,42.1z"/>
<path d="M73.4,39c1.5,0,2.8-1.3,2.8-2.8s-1.3-2.8-2.8-2.8c-1.5,0-2.8,1.3-2.8,2.8S71.9,39,73.4,39L73.4,39z M73.4,35
	c0.7,0,1.3,0.6,1.3,1.3s-0.6,1.3-1.3,1.3c-0.7,0-1.3-0.6-1.3-1.3C72.1,35.6,72.6,35,73.4,35C73.4,35,73.4,35,73.4,35z"/>
<path d="M83.3,66V29.9H63.5V66h-8.6l-8.6-6.7V27.6c0.8-0.4,1.4-1.2,1.4-2.1v-5.6c1.1-0.8,1.7-2,1.7-3.3c0-2.3-1.8-4.1-4.1-4.1
	c-2.3,0-4.1,1.8-4.1,4.1c0,1.3,0.6,2.5,1.7,3.3v5.6c0,0.9,0.5,1.8,1.4,2.1v31.8l-8.6,6.7h-8.6V29.9H7.4V66H0.7
	c0.4,0.6-0.4,1.3,0,1.9h89.4c0.4-0.6-0.4-1.3,0-1.9H83.3z M25.2,66h-16v-2h16V66z M25.2,62.6h-16V31.8h16V62.6z M44.4,66h-5.6
	l5.5-4.3L44.4,66L44.4,66z M43.2,18c-0.3-0.4-0.4-0.9-0.4-1.4c0-1.4,1.1-2.5,2.5-2.5c0,0,0.1,0,0.1,0c1.4,0,2.6,1.1,2.6,2.5
	c0,0.5-0.2,1-0.4,1.4c-0.4-0.8-1.2-1.3-2.1-1.3C44.6,16.6,43.6,17.1,43.2,18z M45.3,26.3c-0.4,0-0.8-0.3-0.8-0.8c0,0,0,0,0,0
	c0-0.4,0.4-0.8,0.8-0.8s0.8,0.4,0.8,0.8c0,0,0,0,0,0C46.1,25.9,45.8,26.3,45.3,26.3C45.3,26.3,45.3,26.3,45.3,26.3L45.3,26.3z
	 M46.1,23.3c-0.3-0.1-0.5-0.2-0.8-0.2c-0.3,0-0.6,0.1-0.8,0.2V19c0-0.4,0.3-0.8,0.8-0.8c0,0,0,0,0,0c0.4,0,0.8,0.4,0.8,0.8V23.3z
	 M46.3,66v-4.3l5.5,4.3H46.3z M81.4,66h-16v-2h16V66z M81.4,62.6h-16V31.8h16V62.6z"/>
<path d="M42.8,16.4v0.2c0,0.5,0.2,1,0.4,1.4L42.8,16.4z"/>
</svg>
