<svg id="Layer_1" data-name="Layer 1" xmlns="http://www.w3.org/2000/svg" xmlns:xlink="http://www.w3.org/1999/xlink" viewBox="0 0 1040 283.32"><defs><style>.cls-1{fill:#db0132;}.cls-2{fill:url(#linear-gradient);}</style><linearGradient id="linear-gradient" x1="7.52" y1="239.65" x2="1037.19" y2="239.65" gradientUnits="userSpaceOnUse"><stop offset="0" stop-color="#ca1239"/><stop offset="0.25" stop-color="#f77842"/><stop offset="0.5" stop-color="#f9ce4e"/><stop offset="0.75" stop-color="#66e0ff"/><stop offset="1" stop-color="#4e57c2"/></linearGradient></defs><g id="Nordstrand-logo"><path id="nordstrand-shape-1" class="cls-1" d="M7,3,0,192l28-5L32,60,63,178l32,1L96,0H68.87L72,103,46,2Z"/><path id="nordstrand-shape-2" class="cls-1" d="M113,5l-1,170h81.4L199,2Zm54.1,142.38H140V34l31-3Z"/><path id="nordstrand-shape-3" class="cls-1" d="M254.24,96h44l-.95-94H219.06L208,179l21.2-4,3.8-56,56,68,19.42-12ZM248,29l25-1,2.15,44H243Z"/><path id="nordstrand-shape-4" class="cls-1" d="M415,39,370.21,2H325.53L321,179h54.28L416,150Zm-29.9,95L366,152l-19-1,2-116,18.5,3.06L388,55Z"/><path id="nordstrand-shape-5" class="cls-1" d="M512,0,453.55,2,431.37,28,431,81l18,22,40,1-4,43-51,1-.1,31h57L513,154l1.39-59.5L495,77l-36-3,.89-39L511,36Z"/><path id="nordstrand-shape-6" class="cls-1" d="M558,38l-6.54,141h33.9L583.15,38h30.42l1.9-36H532.13L527,36Z"/><path id="nordstrand-shape-7" class="cls-1" d="M667,96l50,5L713,0,627,6l-6.46,173H644l2-61,48.68,61h30.11Zm-1-69,22-2,3,48-29-5Z"/><path id="nordstrand-shape-8" class="cls-1" d="M795,7,764.25,2,732,174l25.82,5L767,127h21.36l10.72,52h27.06ZM771,98l7-50,5.54,50Z"/><path id="nordstrand-shape-9" class="cls-1" d="M840,184h29.27L866,69l21,112,38.68-2L929,4,900.57,2,901,126,876,6H843Z"/><path id="nordstrand-shape-10" class="cls-1" d="M1039,39,993.92,2H949.2L944,179h54.76L1040,150ZM989.93,152H970l1-114h20l21,17,1,77Z"/></g><path class="cls-2" d="M17.92,220.33v17H45v8.8h-27v21.44H7.52v-56H48.4v8.72Z"/><path class="cls-2" d="M68.56,264.69a27.5,27.5,0,0,1-10.8-10.32,29.75,29.75,0,0,1,0-29.52,27.5,27.5,0,0,1,10.8-10.32A31.93,31.93,0,0,1,84,210.81a31.93,31.93,0,0,1,15.44,3.72,27.62,27.62,0,0,1,10.8,10.28,29.9,29.9,0,0,1,0,29.6,27.55,27.55,0,0,1-10.8,10.28A31.93,31.93,0,0,1,84,268.41,31.93,31.93,0,0,1,68.56,264.69Zm25.52-7.92a18.18,18.18,0,0,0,7-7,21.28,21.28,0,0,0,0-20.24,18.25,18.25,0,0,0-7-7,21.42,21.42,0,0,0-20.16,0,18.25,18.25,0,0,0-7,7,21.28,21.28,0,0,0,0,20.24,18.18,18.18,0,0,0,7,7,21.42,21.42,0,0,0,20.16,0Z"/><path class="cls-2" d="M135.92,264.69a27.5,27.5,0,0,1-10.8-10.32,29.75,29.75,0,0,1,0-29.52,27.5,27.5,0,0,1,10.8-10.32,33.9,33.9,0,0,1,30.88,0,27.62,27.62,0,0,1,10.8,10.28,29.9,29.9,0,0,1,0,29.6,27.55,27.55,0,0,1-10.8,10.28,33.9,33.9,0,0,1-30.88,0Zm25.52-7.92a18.18,18.18,0,0,0,7-7,21.28,21.28,0,0,0,0-20.24,18.25,18.25,0,0,0-7-7,21.42,21.42,0,0,0-20.16,0,18.25,18.25,0,0,0-7,7,21.28,21.28,0,0,0,0,20.24,18.18,18.18,0,0,0,7,7,21.42,21.42,0,0,0,20.16,0Z"/><path class="cls-2" d="M192.56,211.61H217A35.14,35.14,0,0,1,233,215.09a25.76,25.76,0,0,1,10.8,9.84,30,30,0,0,1,0,29.36,25.76,25.76,0,0,1-10.8,9.84A35.14,35.14,0,0,1,217,267.61H192.56Zm24,47.2a23.67,23.67,0,0,0,10.84-2.36,16.84,16.84,0,0,0,7.2-6.72,21.58,21.58,0,0,0,0-20.24,17,17,0,0,0-7.2-6.72,23.8,23.8,0,0,0-10.84-2.36H203v38.4Z"/><path class="cls-2" d="M322.72,268.49l-7-6.8a28,28,0,0,1-18.8,6.72,27.15,27.15,0,0,1-10.48-1.92,17.31,17.31,0,0,1-7.28-5.32,12.24,12.24,0,0,1-2.64-7.72,14.62,14.62,0,0,1,3-9.16q3-4,9.92-7.8a24.7,24.7,0,0,1-4.8-6.28,13.48,13.48,0,0,1-1.44-6,11.78,11.78,0,0,1,4.44-9.56q4.44-3.63,11.8-3.64,6.8,0,10.88,3.32a11,11,0,0,1,4.08,9,12,12,0,0,1-2.68,7.68q-2.69,3.36-8.76,6.8L315,249.29a37.19,37.19,0,0,0,3.12-9.44l8.08,2.64a38.59,38.59,0,0,1-5,12.8l7,6.72Zm-13-12.48L295,241.85a22.88,22.88,0,0,0-6.76,5.08,8.53,8.53,0,0,0-2,5.48,6.61,6.61,0,0,0,3.12,5.68,14.19,14.19,0,0,0,8.24,2.16A18.65,18.65,0,0,0,309.76,256Zm-15.52-36.28a5.37,5.37,0,0,0-1.92,4.28,6.85,6.85,0,0,0,1,3.64,27.41,27.41,0,0,0,4,4.68,29.31,29.31,0,0,0,6.68-4.6,6.07,6.07,0,0,0,1.88-4.28,4.87,4.87,0,0,0-1.72-3.92,7.21,7.21,0,0,0-4.76-1.44A7.75,7.75,0,0,0,294.24,219.73Z"/><path class="cls-2" d="M410.72,267.61l-.08-37.12-18.4,30.72H387.6L369.2,231v36.64h-9.92v-56h8.56l22.24,37.12,21.84-37.12h8.56l.08,56Z"/><path class="cls-2" d="M441.67,261.89q-6.48-6.51-6.48-18.68v-31.6h10.4v31.2q0,16.49,14.24,16.48T474,242.81v-31.2h10.24v31.6q0,12.16-6.44,18.68t-18,6.52Q448.16,268.41,441.67,261.89Z"/><path class="cls-2" d="M503.63,266.57a26.06,26.06,0,0,1-9.56-4.88l3.6-8.08a28.18,28.18,0,0,0,8.44,4.44,30.63,30.63,0,0,0,10,1.72c4.16,0,7.27-.66,9.32-2a6,6,0,0,0,3.08-5.28,5.1,5.1,0,0,0-1.72-4,12.07,12.07,0,0,0-4.36-2.44q-2.64-.87-7.2-2a82.55,82.55,0,0,1-10.36-3,17.06,17.06,0,0,1-6.8-4.76q-2.83-3.24-2.84-8.76a15,15,0,0,1,2.52-8.44,17.16,17.16,0,0,1,7.6-6,30.88,30.88,0,0,1,12.44-2.24,40.26,40.26,0,0,1,10.08,1.28,28,28,0,0,1,8.56,3.68l-3.28,8.08a32.38,32.38,0,0,0-7.68-3.28,29,29,0,0,0-7.76-1.12c-4.1,0-7.16.7-9.16,2.08a6.42,6.42,0,0,0-3,5.52,5,5,0,0,0,1.72,3.92,12.25,12.25,0,0,0,4.36,2.4q2.64.88,7.2,2a75.47,75.47,0,0,1,10.24,3,17.52,17.52,0,0,1,6.84,4.76,12.58,12.58,0,0,1,2.84,8.64,14.72,14.72,0,0,1-2.52,8.4,17.11,17.11,0,0,1-7.64,6,31,31,0,0,1-12.48,2.24A42.63,42.63,0,0,1,503.63,266.57Z"/><path class="cls-2" d="M549.11,211.61h10.4v56h-10.4Z"/><path class="cls-2" d="M585.23,264.69a27.4,27.4,0,0,1-10.72-10.28,30,30,0,0,1,0-29.6,27.71,27.71,0,0,1,10.76-10.28,31.55,31.55,0,0,1,15.32-3.72,32,32,0,0,1,12.56,2.4,25.57,25.57,0,0,1,9.6,7l-6.72,6.32a19.6,19.6,0,0,0-15-6.56,21,21,0,0,0-10.32,2.52,18.22,18.22,0,0,0-7.12,7,21.44,21.44,0,0,0,0,20.32,18.15,18.15,0,0,0,7.12,7,21,21,0,0,0,10.32,2.52,19.47,19.47,0,0,0,15-6.64l6.72,6.4a25.55,25.55,0,0,1-9.64,7,32.23,32.23,0,0,1-12.6,2.4A31.55,31.55,0,0,1,585.23,264.69Z"/><path class="cls-2" d="M665.27,220.33v17h27v8.8h-27v21.44h-10.4v-56h40.88v8.72Z"/><path class="cls-2" d="M747.83,258.89v8.72h-42v-56h40.88v8.72H716.23v14.56h27v8.56h-27v15.44Z"/><path class="cls-2" d="M764.27,266.57a25.9,25.9,0,0,1-9.56-4.88l3.6-8.08a27.94,27.94,0,0,0,8.44,4.44,30.59,30.59,0,0,0,10,1.72c4.16,0,7.26-.66,9.32-2a6.06,6.06,0,0,0,3.08-5.28,5.13,5.13,0,0,0-1.72-4,12.15,12.15,0,0,0-4.36-2.44q-2.64-.87-7.2-2a82,82,0,0,1-10.36-3,17,17,0,0,1-6.8-4.76c-1.9-2.16-2.84-5.08-2.84-8.76a15,15,0,0,1,2.52-8.44,17.1,17.1,0,0,1,7.6-6,30.81,30.81,0,0,1,12.44-2.24,40.37,40.37,0,0,1,10.08,1.28,28.1,28.1,0,0,1,8.56,3.68l-3.28,8.08a32.73,32.73,0,0,0-7.68-3.28,29,29,0,0,0-7.76-1.12c-4.11,0-7.16.7-9.16,2.08a6.42,6.42,0,0,0-3,5.52A5,5,0,0,0,768,231a12.16,12.16,0,0,0,4.36,2.4q2.64.88,7.2,2a75.91,75.91,0,0,1,10.24,3,17.67,17.67,0,0,1,6.84,4.76,12.58,12.58,0,0,1,2.84,8.64,14.72,14.72,0,0,1-2.52,8.4,17.11,17.11,0,0,1-7.64,6,31,31,0,0,1-12.48,2.24A42.58,42.58,0,0,1,764.27,266.57Z"/><path class="cls-2" d="M820.31,220.41H801.75v-8.8h47.52v8.8H830.71v47.2h-10.4Z"/><path class="cls-2" d="M857.11,211.61h10.4v56h-10.4Z"/><path class="cls-2" d="M933.43,211.61l-24.4,56H898.79l-24.48-56h11.28l18.64,43.2,18.8-43.2Z"/><path class="cls-2" d="M973.91,254.65h-28l-5.52,13H929.67l25.2-56h10.24l25.28,56H979.51Zm-3.44-8.16L959.91,222l-10.48,24.48Z"/><path class="cls-2" d="M997.51,211.61h10.4v47.2h29.28v8.8H997.51Z"/></svg>